<mxfile host="Electron" modified="2023-11-28T16:37:34.905Z" agent="Mozilla/5.0 (X11; Linux x86_64) AppleWebKit/537.36 (KHTML, like Gecko) draw.io/22.1.2 Chrome/114.0.5735.289 Electron/25.9.4 Safari/537.36" etag="DwoidoiXJd-DhPcHlmA1" version="22.1.2" type="device">
  <diagram name="Page-1" id="IVYRUMGHq3L49tUClosF">
    <mxGraphModel dx="1886" dy="699" grid="1" gridSize="10" guides="1" tooltips="1" connect="1" arrows="1" fold="1" page="1" pageScale="1" pageWidth="827" pageHeight="1169" math="0" shadow="0">
      <root>
        <mxCell id="0" />
        <mxCell id="1" parent="0" />
        <mxCell id="twbbHOKhrj83xSpajMzB-8" value="" style="group" vertex="1" connectable="0" parent="1">
          <mxGeometry x="200" y="200" width="170" height="60" as="geometry" />
        </mxCell>
        <mxCell id="twbbHOKhrj83xSpajMzB-6" value="nimrod-data-downloader" style="shape=process;whiteSpace=wrap;html=1;backgroundOutline=1;fillColor=#f8cecc;strokeColor=#b85450;verticalAlign=bottom;" vertex="1" parent="twbbHOKhrj83xSpajMzB-8">
          <mxGeometry width="170" height="60" as="geometry" />
        </mxCell>
        <mxCell id="twbbHOKhrj83xSpajMzB-5" value="" style="shape=image;verticalLabelPosition=bottom;labelBackgroundColor=default;verticalAlign=top;aspect=fixed;imageAspect=0;image=data:image/svg+xml,PHN2ZyB4bWxucz0iaHR0cDovL3d3dy53My5vcmcvMjAwMC9zdmciIHZpZXdCb3g9IjAgMCAxOCA3IiBoZWlnaHQ9IjIwMnB0IiB3aWR0aD0iNTE4cHQiPjxwYXRoIGQ9Ik0wLDB2Nmg1djFoNHYtMWg5di02IiBmaWxsPSIjQ0IzODM3Ii8+PHBhdGggZD0iTTEsMXY0aDJ2LTNoMXYzaDF2LTRoMXY1aDJ2LTRoMXYyaC0xdjFoMnYtNGgxdjRoMnYtM2gxdjNoMXYtM2gxdjNoMXYtNCIgZmlsbD0iI0ZGRiIvPjwvc3ZnPg==;" vertex="1" parent="twbbHOKhrj83xSpajMzB-8">
          <mxGeometry x="51" y="10" width="68" height="26.52" as="geometry" />
        </mxCell>
        <mxCell id="twbbHOKhrj83xSpajMzB-14" value="" style="group" vertex="1" connectable="0" parent="1">
          <mxGeometry x="-10" y="182.5" width="130" height="95" as="geometry" />
        </mxCell>
        <mxCell id="twbbHOKhrj83xSpajMzB-12" value="CEDA rainfall radar data" style="shape=cylinder3;whiteSpace=wrap;html=1;boundedLbl=1;backgroundOutline=1;size=10.28573172433039;verticalAlign=bottom;fillColor=#dae8fc;strokeColor=#6c8ebf;" vertex="1" parent="twbbHOKhrj83xSpajMzB-14">
          <mxGeometry width="130" height="95" as="geometry" />
        </mxCell>
        <mxCell id="twbbHOKhrj83xSpajMzB-13" value="" style="shape=image;verticalLabelPosition=bottom;labelBackgroundColor=default;verticalAlign=top;aspect=fixed;imageAspect=0;image=data:image/png,iVBORw0KGgoAAAANSUhEUgAAAFAAAABQCAYAAACOEfKtAAABcWlDQ1BpY2MAAHjaldE7SEJRHMfxr1oUPRCqIcLhDj2WXCqi0SyQwEDMQKuh+/AF3qvcq7Q4Bq1CQ48lq6GludaG1iAIekC0tjQVtYTc7kFKCQz6Tx/+5/wP5/wOuKs5VbfaAqAbRTMaCkrxxIrU8Uw3Prz0MSarVmE2EgnTsj5ucQHc+MVZ/K96taSlgksCAmrBLDpeB6Y3igXhXWBAzcia41Ng3HQu6Phe9JW6X4TTwrgRNmPROccDgJRustJkNWPqjqeAYU03NMfxujXhsrCeK6nUywX0JI3lJdEHfIRYYJEIEgolsuQo4ieLgYRFlBDBFvNDgI8IJRRyZFGRmCePjoyYR/zB72yt1OQEAK6eILQ/2fbbCHRsQ61i25+Htl07As8jXBiN+XwVZt7BU2n0hg/Auwlnl42esgPnWzD4UJBNGQAP4E6l4PUEehPQfw1dqyK3n3WO7yBWhvAV7O3DaBq8ay3e3dmc2197vvP7ArC3cr8qrwQgAAAACXBIWXMAAAsSAAALEgHS3X78AAAfyElEQVR42uzVaaymZX3H8e//uu792c5zzpnlDIcZ8MAwMAxmXFBBsZVa06pIGTFVK9pEE2NSS7SvbEy08YVNDEYT01qjTTQttlhj4g4UlJYtyiICDsMwC8wMDHPmLM9y79f175tJGtKkkWHAmPBJ7hf322/+v1y87GUve9nLXna65DOf4XfNXDpLuOMZZuR8FnyXObHMqhL6HNEe6qHGszIqWBkd4umV81l99FFawPM7Jv9+LS81u/NtDMyAHSbi9cS8rg242CdsrAIyb4lCgwXET6HtQS2oc7gWqralaGuO155HVmvuXm6458kTPP6VH7AGOF5i8qMv81LpL57N5Umfq0S4QiPOKzKitRiKEGoDVQNGIW1BADMG1wMADQABjUAc+BaqBqYt1cmWA4cd/3kw54fHn+EuYMRLRHhxyT/8lA2vGvMXgx7vCzwX+Zik7CHNAJyBqoDGAQKTEJyACSAVsGMoe4CCb6FUkAYChSAAElAFN4JRgR7ylPeIPPrkaPabh3qX3ji54sfLgP4+BpTX/pzFd1k+8OaUj83DlloR3xWqQKkqmIzgmRAODwxPmZBVCSgxeCDxLZt8zbljx3wPugbmDLRAodAA6iBeg8iD6YPG0LRwpISfBEYfqC94qqje+o8ll34LOMKLRHjkWs6waNvkV9ddmez/+Ntjv3NTiSljCCNwCk8V8JCBe8MBT7YXMm0vYj3cgVRdwhqMbyHMMeEzbJzcR9R7gkVdZofWnG1gQwyZgbiAMoDWQlxDpqApeIFxDbe1lu+Fr/R5dd3DNn/VF8fzCzcCFWeYoMoZIjz6Hxf16p9+/vzkX/54j8nD7TXSTSETWG7h3kq4NZ1lr1xBUeyBozuJ9loG+8dM8y6lpviOQWeBBaW36WnGS2MkfYjI3MPAP8hFxdO8Pq85ewDdGKyAUUgcJAWQQmph5OHmwvCvyWU6bf6qDteXbpm64Sd54yseP5OzFm7/DGdAYIdv/UBkfv3ZfnrD4nvcPnljCxsTsAb21fADF3Fbcjnj4oPowddg7o6JHyyRZwxSxsz5gtYk1GKpgDKBdG7EaFcfdigs5di5A0TmZ8TprWyvHuNNvmYphb6BEEgUogKyEDpWWEb5tzLgO+HbKPR6DZ7e8GTjo0+7Qf5toOEMkEu++Te8QJ2DW9/xqaa/dn3auyHb4/6bqxvPVgsGuMvCP7dD7ouvpV65Du7ZjLlTSR4roE4ZimEzwgyevi+oTEKrLRNfM3ZjjsQ9JnMxfrsh2lFT7BY4az8muIlF933eUq3z6hS2GghORewX0HegFh6I4etVxh3RX9JWH9HoqJ3GZf6l4YM//hxQ8gJZXoBJGG86uvXKr5JUH876X4w+WN0h71/xnNOAreB+D9+YnMXD/uOYx/cQfz8lvNnRPzjB+oyBWPoIsQgKhNoy61YJTURgMjooFV3CSUV2eJ3iSIKbJGA3ov1XMYlSjnGQ7mjMwMOwhEENnRKiVbAtJA4qGo6NnmQSnSdetkZS2Muqza9Y0n73TmDKCyBL372M07Tx2S1//Y3IuT/tpf8k14V38K6xZyYCQuE3iXJDNcPPo0/jDrwdbo0wdynzqyMiCQkAr54WpRWLwWEkIpOAzJesm4zQjVm3XTo+Z2JSSm3QrMFfYjGvdrB7hB/8iAHf4D3tcf6gB0ut0K1BWqCGsgt3JspXvWX/+jVUwUcJjw0Ji9Y1CT/uLR/5EHDyJb3AQXpww2Tmmq+5MHl7r/clc13nF1ybK/0WEGE9UW4Uw826h2LtQ/BfMXK3EK84hiityRiZiBUJmZgQTWp8p6UKPeszygkNKesKg6eL56REhNqwSRuoHNWKpSCjnu/Tbl5kmq6A28uidWz1QuoBARpFA2ElgidE2W9iXHAxRedcqIwJG3eeJMH2qYxvAQpOg+F5unx6d6fIXvflE3Mz7xwkXzYfTh7k3aWjs66IAR/CL2P4WX0WY7MHDqZwSJBV6PoabyJUhBpQETQUZJNnclaPfFeG7hYG5MwMJ8y+aT+DbMJ2X1CLIbAZG4Iug9wjDxu4T+DwBvBXszc6j0drWLWKeqABIkFKJQaGAhqPCJsjkNbksxlVFJn1dP5dg7T/RconepyGAJ7it/VHy4T3bzvvUwc2bXv3sL3R/FnyCFcV0F0FsYARprFyL8Jx3YVvt8GawBTwSqANSkzmS5x6SnWIetLxFJ9baIFWGVSeGanww5yVmYpgGpGoYx7HHMpmnaDryvh+wc1Y6G+lnH8T+/wTHJeKbQLWASHgQBREwMgEb1axvqCNMspORjouzfHO4vsWNq4ePlx8+7OAe9Eu8KGd3Wv2L+y6XuyDwRv4FVe1SrcAyQEEtXA8hCe8oTJDEIsYR2wLMh0TuSmRLwgQIgmpbYeJ9BlPepTjFPdsgBTK0U0pB/MhT9y8ixOjIUejGKceIwGBSZmxXeaDPs2zHdyDIW5fl2R0BcemixycQuEUjQALAoRACkRUlMmUtBwjBrw1qCquiYPVbOkTM4tvuOpFm3Dn/GjHgc7Ffz/qpul59X38SeDYkoNUgANOzfdZA6VXknKNbnWCJCrwM4bpTI9122XFdGhMjJgQIwYUVC3D6CTaKvnRLqKOtfkMjQ1VmALKyHZZVkXakxgJWUTZqAZ/IKR5IGK6dgnHsmv5bqfHvQlMGsXlSiNQ1mAUYiowy8AItQoITRAR5jWTdjZrzeIXePV0+xkPuHOZbFku/Nwovnir8KjsaqdcANhGoAIsEEKjSpVDr/BgTzAZ1BQLHZoNMTor1Cak1YYaqAHUEfscWphqF2OVeFThnwngpIF10FEAjQGtWVHPxPbp4dmqBa8Tz44K4nsE+WGAe/pqHuI6vhLP8J1Z+MU8/CaBp3PIp6CNgk6AVcS2YMEFAbZu8VMRN3nFud186e/Omd6UnNGAR5bOuWrqdr6jjqyE/iSLBuYawAEKeKBUWoU2haQDQXgMzCGY8dAH+tDEEV5rRqrgKxJf0JiYUjLqIkEroc8agTYkPif1OYmbYrVl0K5iJGBoYkKbEpmIs33O5dRckSsbbq9pvjdHe+gjPOQ+yVdZ4uvG8FOBO4awLwXXCNmkJmhz1HgIFG8FPEiuVOt9sZNLrlrYeu47z1jANzs2HJu/+G+d2R6rEVIqtikkTpBWIVdQ0C5oAqGBeQNDv4KwD7oV9BVicIFBERI3QlAK08FLgADiIWgcK2aewmZUJqayMWUckw8yVrI5VFsCQBBUAhrTIaHlYl3nLa1l8U6L+VoP/8v38Gz5BW7XPXxfN3KLJDxgE05mG8k7XWxbkRVjAuMgAB9abOnwJy3t2s7kxPCCT9/ATbNnJODezVvfPw53XliHi4CjW5UMAjC5Qg2kAglgBWegI7DRwLyUWD0IQQ4xEIENW1DFI0wlxIoQAgDWt3gneAJ8anEzAW7O4jYH+AVLOxvQoM99JEXwEgGGOfFc6Vt2PAzmWyHceQmy/glG5qOsciUVuxGWwMxSJQFlZgl9SdKWaCCIeKiEdrkvy+Hunc9uNH/ObyHg/3F9yoYb+ps+jN9mXdQDFZJGST0QnIpXAwoIBB5ChUBAIk9UnaANJ9CfI0pKbOCpbEYNDF2OmJhaAhwQ+ZLCdsCC9oAOYIAZIANCYbSc4t0UTBcAQ4PRhvrUf18LLiMgPxxx+CcQ0aW89GrQC4G9IAXQBTp4A0U3JWgcvdURedSBUmnKmKDYbY52hx97yN50I7B62hd4pMuek+nmC4ybxZseQWtJK0U6IFbAAjGgICgCKKfahpC4wxgOkWRT6AtFP0OtQcWwbjsYbYh9QdfnNCYCMaCAAVKgDwyBU0ErY5gQEmhBoDlGHa3pgBgQQ2syMpRLtaS33yH3Km7/APLdwB+ivBblImAekRCxStsLyWc7JEGJNQ5tBCZn8XD33B2jCdec9oS/FJNN4+C9RTAMlISoBtsKRSaoghrAAAEggIfQC0NgAdgiYON1hmsP0M466i0RbAEdgAJOhBWbUUpAz02IfEXkCqT1/xsxPPUFIIEn0RyvNZGf4CWiNQnPJTiJmRXL+eUa9f4E9gocCaFcAF0ibLbQhBuBADVACCRC0U8Jw5qABuqII+FZZjnhvfNrZKc14YUZduWhXOpxxLWjjSxV0qVylqYANSAACqTACMJZ2FJBE8MxhXPqnF93H8G6w7RLO2HVohWwDxiDA7w6loMhlQQYdWTtFEqFAroyRnMQA74x1EHMqksoiRF1p8ryf0Q4hkGXznLF6HGDDgyEASz0iByUSQJqETxYkMDjOiH1fEy8XhJ5z1Q3y1omr5mu6iuBu593wKjgmmbWJWGzjqilinuIBNRiWQecVYwIOKAVcIpUSoSwoMqFHh5PPY+Zhymr24jn56gu2gKtoA44ADLyeHVUNgXAiyEnxDtQD7QwKfoQAoCxMAVaE5G4MU5inkMVqyUqlg4Rqo7kUEG1OcHPWGyo+CTERxFqPGJqwBDYmqqbgBfqLKFn1sBFrEX0SXgHcPfzmvDnH/mfdu4k5rL7Tuv453eGO71zja6yy7MT20nsJHa6nYYkTYKgO4gFiFYvAbFCLBiCBA0LhkUaCXULCEJigcQgBSnQbOgNSE3SUWgcJ8FtJ07s8lBxzWW73vGOZ/q3LF3pLqySK06ctNR5pK+e+77nbO5zn9+Z7rlHr8z8yqBNenVl0esTISnMs9J+osmQoUMKcoyJBWtjHij4RPCIN6Xe17SDpw3veEt8qONh0kNJ78TMojcAABA1FpjjCPsYIzFGl0KdDRVpBkikTpmmUuS6KA2CfuSq8UDv2lzcaPWuL1RVX1oEOiSRarKGITZIO8y3MuViqg4RyZ/Lr+n9SA38WOnDXeeB7XlSHQvluENCT6XvsKDuGCACEoJFokpih2N1eLxIrubJfnzfy+VXVNuFkSc1jml6hejRXM/FW8QEHQBqdEvSyt/EPo5HoejmIjWyVMs0mhhJkSHkGCJVmcXB0Mb1Q9VWT7uTMyRSoJO3M02RSf1GFDlRM9tTDW9Y209UHs+fdycu3HYDrft4Xhv0e8imUoxF1yB00TnoMW2QIwOs3qyoiYbTNR9LfELjdPyhrvivJse/o3vg0Pb9e7KPtPIPddJDdHeSdkibpDUEWAWIVHCI7yeOulboDNo9KXJ1tuFtJyR0KKAL+VGrmRXiMIl5oiWlQCgXlbqXRDaVygOya5IfGGSv2sqITJkd88kfqYFyH4+FbKOgtKvNr8vaQpcdSjp7OUc4naFAg2miH2SYJJElwyLcUySP5RxG7Q8852ZkmrVd1f2fNL/zHv3XZrJRJ40yi6Mes9ClkFJOgzzJ6lZ0Sawl5WLhyiypI/dQPnKnTKYQAEhYoEWWGuWsNputyeat4d7M7PhI6kJ0IRPavMFNHCibS5ryGQ+46I6CqCiGfhFfvq0A/9v/MYoP+2CUnEiMvGm394pedWBeXtVpjIPdEe1BUpTB0TK8PIAS00SZnMz5QM4hGgvP+Y6D2U2z9bc025/TbH6QUyPZD+ldWYiDJBZJNmutT4+kjK7OpSYkYbq2ZnYzHByFSx33pNa9XW0z6+sDFjhMSdc1eqk2bwbSLLSLXLXo6R/OLbb6hovKZC3DdVwSriqa1+g97SkTpxpkpM5Hb7uB5ab1SO5MxOmWM2nPm/mzBu0p0r4s5ipcLzjqsT1Noo+ENiEIDIgZeYSdXvJAToe1rvZa+4rvDw+1cUka/ir3PKHbOmZ+csBbwRhHxAHj2GSBGQIZaRt7TA946bDvrfmRLHpGQg+lRDdXp2SRDagzFqhCU5eyqrN2MFZvJynewgXhNboLivYl9+TX/FLHcIwBamfyPVs4eNdt4FphU2FH4vSCx9RG8by6+K6ifsXQxByXg8sDqpY0DErkiESBLFgLkVifcLLhETxV8UQveTxu2PJ7Ir5M+T85cZ6HFnwo8XDifpzFHTiNs0s/iTvxQdJHaR8LB3eW9nqV1/Faql1sJ16Tu5kNiYyEBgvUNFmhV8+1xZR4XXgNr+jXzzlbXvRZnUcrokKHzEY7dfy2vlT6qzMPZdv+WmwalDmLTa7Hwhv5ke35oRNlK4KUWJ/T33rbQ14mIciRI0MPBV0vlDX9BWsNwyFr2IjaxHVjN4gZRcnaUGy87Zl+Xqm2+gwwxBpG2MJJ3MHbdMdya72xrN8gmaWhRi4JgjTENnaIY53h1sz4rp5+fV5TfleKF0V6yYOza3552PmVxN1jsn0kHErFDV/G9XcdYbmNoNRSVHy45okeddQGOWXNrOTmlOcGLHKqreTBA3p9okNOClJGm9Fl5KOwVSWDMfmUYcGJgkFe+Wa85LIpMZbimtT/AMfvJiUiMQlmqNGhREmRNfK2Vuw08o3WZHdNs1uyF4wxR2ALO0lsd4ajufmpga6/q2pv6M9fVg1fcld1zSfLzp/FQzNiggaJSIo6bMK7Bhjr1lKriIZoOT3hyR5d8MaAfMJNTIOXcsbBQcF0k3umyWafQmgyjoqkyemwCPKa/jbbwaDm2IJBS561no2LXh002vyAuCnlE4anxWhNWiuYh3za6s8X5EmWd9phrhnmpmdGFqcGyku1Zr/kAEeYIcOIbLszODUzv3eo266IK9riVb3qvPvq6/5M3frskEfmlNMQ40SgIoXIWsVtBZiSIggNgt4Bj68x6PF8cGXA5k2unOQguIaLuFDw4AaPTNnqJUclY1TBABsd64nI2WnCTjAeIpKqI+kU8yuuthOtPcme9fG9OMI2xVC7NTA/MSCnyxNZLUwkSTNa1x/WohpIh1atlfT6lWKjMTszlHZmFOdFfAP/z5nBRX9xt/HpLR6dU06IaVqF3yKJLhneXgMLTcqlaFATwfaYhzfoSqY1N0csKm70CyJzVe5CNM5H7eU1Tsypaw4G1DkDnF5wT58HcLxNRk3oN/RKsgJBvZYs7HvdC2qNMDXeJDmLk9jAFC3mGEsmaCjXNceHiu6E+o5N6ly+6PQWC90wzNZDKi+SvYCn5b7lrnTR5+vGZ3o8PKFsQswTE6x2PCKkvDa/vQArh9FTm+upURL7bPa4N7jY8Ow6k3kmbwaaYl0TG24Kh274YYyVA7KWbJbrMtKgdXfTenXADSx6PCxZa8J2FQZt0u8RwSiSDQde9AIOcCicxSnJMfTRYox94RAzZOreuuFkW7122iANRNaz2FnX5RWuinheeNYxr3gkjf1ynXym5a6cco8IrA6ZqFGBLjVmtzfCEwcylcqaCj0ksiN2Gk6s0Qv2h4VyuiXSjqY8Sww1TjpQERlFznpPXmfWDo+82t50vr3uSj61CHrLD2SjZtiG+xb0esnpjFPBhonLXjH1ltYpyUlhCz00kiPs4kCYylIn7zIb81LZjUzWNrTFED25qdJ1x93wsJknEk8seHjOeoSYJWpUS4dmRWpU9dzRbQXY9Ozmlbkcc/RRYEwvcccmZ7Gt89ZwoD/fkHWbqv4WcRo5Bgj0teWaqjfBrlh8z+Xue17OD9w1YFAmg5ZeF8qOc4uwXSQbJRvBBa3vuemSfUcuapWSTOiUKiOVnba1vUjWWiLDGrMszIoAuTDUOS15GB/qeHDMsZosQiwwR4cpEnI0qJFQm5SF/dsK0JuO0o43Y9MZCyxQICObcnfNYxmXovF03LQYnFRWYTBdtxju6GKdWMMAfdJA3s6M1zvhuHniu90zzk1rpzrO1PQkIeSS7V54pEtGPc7gROKS1m6aaDq6RN6wVbOD7ZxRn2FGGeQoxol+UmCIYeJY4lTFxiF5IiKoExUadJhhiBot5igwdbB/yc3bCrB7w5E7XbTlI0KYoQBik419PnqCGwUH9n0vLqj6m4r8pMG0VfeG6vIEcQxDRRu6vCKSBPGGa9mrvrt+3Wnc27BxhGkSNSTDHveX4fg8OYs3cRBUOV0QOcMB29jGZke/o0hLarI5mVB05B2xSGKKHGkZXotuyRgjzJChQkKHiR9ielsBokr7fhDH/QU9LFAC1rHgzgOe3GESVPGG857XFKXZiP5ioKhHFoMTUjZSVp2q2BCpkyJJ7tW4zwVvuqi1m3G2F7IOBRBBL+dkznYR7iqSo5w6CPQ7Bg2DlrILeUckLIkmcYDVlSIiyFEl2kQHSFgGCxrkmKHEEWnhD+F2AxQHnk772jihkGGMAWZERn/GRyLkW0mWJ5nrfuCbmmzfYliLtjSYDYlCWffNi02pTSLfkeJuPGDXi1635/XgviJZjxBQAdFgTm9GWYSt7J3XCGPVINIS6HCILJHQC1JigWQFzAE5agSOkGOBieTIN36kGywff868OOWvWzeQY44SgSAyShyrV3fKT2PqwIFGRVaqyzVttmHjqCEyEUmXJ0xF3NS6omfXXbgbm3WIBi0EHWZBRrREs6RevdZa0SyZJ6aYoY8M3RJI6FBhhkCODg1mmALmpF1HXvUbmNz2FenxMy53r3rNAVp0mKHCfMmCfs2HdvlczecSH3doy/cl3xbxXXn3ksPNymw9EQujyZvWxm/qzaeyhkkKbwW7GW2JDAEQJHRBjQUq1KismGOaGCemCcEw6KO2aickq5DmKKzCq7FY0qLCmLTnWw/8bzfdQvHyE26lf5B/ym86JwSGSFjHYMmQNKQpeG2NZ0Z8M3hG300PGo4fMx8+qcsfxDHSvkjnlfW3Fc3X3dle9VQknw2eaFhriGnQAiZYAwDUidXIkiMPSkAEKTF/GwwBackYHfqADvWSQ3RYFseerjnv7+Ffu4XixfvcSh/sPeIPPO6YdRxDAqyhj+EqyLbPGwXPrvH1kmfkDo9O2dv8OB6VnBEOcBXnhefdbc8nOn4p8WTN2X1iigbdLQLsIYKwAgIJAqg7DrGG1WkZYTXWq/HnCLDA3tKvuVa/4LN40S1UjC+4lV7bGfpqnPKXnRKWQQlMkJa0aMgb7hjx6Qknc+7qt56Pa/6/r9r3suQOyURmV2HXCYfO4VhGhnmQ1kPkaK3GbxRwa0WiRKBBCwiwGvtAYdW4Bt3SJ8hQo8IMldRd9PWj73j1vd5cVHdj/yl/weflhvpIGCGsRmH1SYqGtSEfG3HPhI8seKg/9ULxsrfiVb3oDCXrOI4zuDdxH07VREJCIHP7CiR0SIkOM8yxCo7GKrx26TOr5QtMl/66hUv+I+r3/DOHNHClV/l0VO4zQo4MJXIs0AEaNERDVjOac9eQR1serXi8TZ7seBIfx0cTj3Y80HKmDqMmRI3Wigq98K7qUKFKqxAgR7ekRvWOltFDwhwTTHGF9AO/f+m8L6J5rw2ESVf7d/k1f0qhp0MARihQo8IIDSosiIai4tiQnT5dQUpIREvEkh4Bq9EiQSCREgltIkMWqx3FzGp5hnzpA6vJmKC0al+FBUr00GKBCWbYJb2s6Y78G8y9i+KCd9Wgu9t/j9znnRE+iDuwhTWUgAUy9FGgwjrKJb2lxxJIqJAAaUkAJlYNAcgQSBggR4GEliWrsMYoUGGOhD4SVm1kgl38QEqX/O78h/4KKu+iYuFdNcdvlp1PxTWbEmq0gBF66KPFDIEGYdWMAuXScyvCynlnkEPvDB0AWjRwi+3cHNCiRGY18o1V8/bxMq7Z7WpfROU2VFxzG7rom+fO+c+R/C3XhA5LHAf0rMJplkytgq2xQL6kWJLfopmrM4Z3hgu8c90OjVWIc0yxbtXSyqoAY1S4ifO4rO0q//7ZK77lNlW4PTV155+WuSeyzlNuCDUSWuzgGAoEMvSXVGiRoVh6idUbh3e2EBJWDSN5pwdW61EtgXJJoLYKboEpalzHy7ghpdbXjo78S7Q/6QDhZmp9IeV+J5IzdnEeLSBhEwMABPpIWLWDBQYoMESLHOAWDQPeee6blkCGQA9pSYcxAhVmVtNxFa/hJqlzPWv9fey/nw+diFfO+fUs/AdhJLCJ+/ABjNBfOgzcWvkSCJQIJADM0EcNgAqsGg3QWQXWorZqZGNFjT1cwmWMpS6ZJP4GvuJHVCQ/srJX7/KFLPPPhCEY4CHcj20EYAM9QGcVVIZAgd7SV/8HYII+WqQltVVInXduA2uswmOGDoEjvIHLeAsNkmnLP372oi+h/Wn8Xji9dOjZ0aYi+EWh0OAAU0AJ6DDDAg2rY71btKZFZ8UcudXyxoqO1XHnkhnmmGJmtXyMG7iAi9hDR6LuOv/CJf8KtfegeMF7Vq9/zj/JMl9AH2RYxx04iRPoo7AKK0OB3pL+0vMl2dIDMwxXAS5ZjeIKGrRYhc3M6pbWmxijQ5IS8zb5rYcu+eeofxbPTGjbQ9/IN43xC0EfYYE93MTukgOrdswwWTLGFJOlz1FhvmSMGtMlRzjEGJOlL5bMMcEB9nDdajt3E3MkIHHYdv5Rfdlvo+a9K77ix1b++Dm/VoZ/Kxy/5c6iRIFsSYkeRlYM0bNat0IfkBDoUGOGqVV4MyxQYW71OgEgSR1XU+vvPHjF7yD5MRXJT0Tx8jmfysMXg6eE3O0qrAIdWNFHWnogoUWNVeuoUKNDcutIkrbja23yGx+45NtI/PiKb+/4SWprZ8PfxN8OTgvhvSpDIL/FGcdtKiUJV/GlvcaXMP3j/vCxePGcJ0r+rvCXIgz9rJRM8T+a1m89dMVzSH7Cipe9b+p35/xCEf5h8JnEKEJ4v5WkxCQlv9fx2/UlT6PyPim+6n1XcffdnkrJr0f4VeHuoPxJhybUKbko+V9t8l8euuxb6LzPiq/4qSl/4qw728yfzjJ/PvhscFbIvFclXQqXU/L7id+tGk+/cNUVtD+9h9D6mSj7tZNGw777m8wnMz6GD+BUsC4MI8kTEaQUWswk48QbKXkxwnOS/zupXHjshhk6f9L14gkbF885+8pdHrxw1sM/POORt/3tv1885+zby//Eh+Tn+rl+rp/rj4/+CKE2WI7YpAZAAAAAAElFTkSuQmCC;" vertex="1" parent="twbbHOKhrj83xSpajMzB-14">
          <mxGeometry x="45" y="20" width="40" height="40" as="geometry" />
        </mxCell>
        <mxCell id="twbbHOKhrj83xSpajMzB-15" style="edgeStyle=orthogonalEdgeStyle;rounded=0;orthogonalLoop=1;jettySize=auto;html=1;" edge="1" parent="1" source="twbbHOKhrj83xSpajMzB-12" target="twbbHOKhrj83xSpajMzB-6">
          <mxGeometry relative="1" as="geometry" />
        </mxCell>
        <mxCell id="twbbHOKhrj83xSpajMzB-26" style="edgeStyle=orthogonalEdgeStyle;rounded=0;orthogonalLoop=1;jettySize=auto;html=1;" edge="1" parent="1" source="twbbHOKhrj83xSpajMzB-17" target="twbbHOKhrj83xSpajMzB-21">
          <mxGeometry relative="1" as="geometry" />
        </mxCell>
        <mxCell id="twbbHOKhrj83xSpajMzB-17" value="Heightmap" style="shape=cylinder3;whiteSpace=wrap;html=1;boundedLbl=1;backgroundOutline=1;size=10.28573172433039;verticalAlign=middle;fillColor=#d5e8d4;strokeColor=#82b366;" vertex="1" parent="1">
          <mxGeometry x="-10" y="80" width="130" height="60" as="geometry" />
        </mxCell>
        <mxCell id="twbbHOKhrj83xSpajMzB-20" value="" style="group" vertex="1" connectable="0" parent="1">
          <mxGeometry x="450" y="200" width="170" height="60" as="geometry" />
        </mxCell>
        <mxCell id="twbbHOKhrj83xSpajMzB-21" value="terrain50-cli" style="shape=process;whiteSpace=wrap;html=1;backgroundOutline=1;fillColor=#f8cecc;strokeColor=#b85450;verticalAlign=bottom;" vertex="1" parent="twbbHOKhrj83xSpajMzB-20">
          <mxGeometry width="170" height="60" as="geometry" />
        </mxCell>
        <mxCell id="twbbHOKhrj83xSpajMzB-22" value="" style="shape=image;verticalLabelPosition=bottom;labelBackgroundColor=default;verticalAlign=top;aspect=fixed;imageAspect=0;image=data:image/svg+xml,PHN2ZyB4bWxucz0iaHR0cDovL3d3dy53My5vcmcvMjAwMC9zdmciIHZpZXdCb3g9IjAgMCAxOCA3IiBoZWlnaHQ9IjIwMnB0IiB3aWR0aD0iNTE4cHQiPjxwYXRoIGQ9Ik0wLDB2Nmg1djFoNHYtMWg5di02IiBmaWxsPSIjQ0IzODM3Ii8+PHBhdGggZD0iTTEsMXY0aDJ2LTNoMXYzaDF2LTRoMXY1aDJ2LTRoMXYyaC0xdjFoMnYtNGgxdjRoMnYtM2gxdjNoMXYtM2gxdjNoMXYtNCIgZmlsbD0iI0ZGRiIvPjwvc3ZnPg==;" vertex="1" parent="twbbHOKhrj83xSpajMzB-20">
          <mxGeometry x="51" y="10" width="68" height="26.52" as="geometry" />
        </mxCell>
        <mxCell id="twbbHOKhrj83xSpajMzB-23" value="" style="edgeStyle=orthogonalEdgeStyle;rounded=0;orthogonalLoop=1;jettySize=auto;html=1;" edge="1" parent="1" source="twbbHOKhrj83xSpajMzB-6" target="twbbHOKhrj83xSpajMzB-21">
          <mxGeometry relative="1" as="geometry" />
        </mxCell>
        <mxCell id="twbbHOKhrj83xSpajMzB-43" style="rounded=0;orthogonalLoop=1;jettySize=auto;html=1;endArrow=none;endFill=0;dashed=1;strokeWidth=4;dashPattern=1 1;strokeColor=#4A4A4A;" edge="1" parent="1" source="twbbHOKhrj83xSpajMzB-24" target="twbbHOKhrj83xSpajMzB-6">
          <mxGeometry relative="1" as="geometry" />
        </mxCell>
        <mxCell id="twbbHOKhrj83xSpajMzB-24" value="Download data&lt;br&gt;to disk" style="shape=note;strokeWidth=2;fontSize=14;size=20;whiteSpace=wrap;html=1;fillColor=#fff2cc;strokeColor=#d6b656;fontColor=#666600;" vertex="1" parent="1">
          <mxGeometry x="160" y="320" width="150" height="60" as="geometry" />
        </mxCell>
        <mxCell id="twbbHOKhrj83xSpajMzB-42" style="rounded=0;orthogonalLoop=1;jettySize=auto;html=1;endArrow=none;strokeColor=#4A4A4A;endFill=0;dashed=1;strokeWidth=4;dashPattern=1 1;" edge="1" parent="1" source="twbbHOKhrj83xSpajMzB-25" target="twbbHOKhrj83xSpajMzB-21">
          <mxGeometry relative="1" as="geometry" />
        </mxCell>
        <mxCell id="twbbHOKhrj83xSpajMzB-25" value="Slice&amp;nbsp;to size" style="shape=note;strokeWidth=2;fontSize=14;size=20;whiteSpace=wrap;html=1;fillColor=#fff2cc;strokeColor=#d6b656;fontColor=#666600;" vertex="1" parent="1">
          <mxGeometry x="400" y="320" width="150" height="60" as="geometry" />
        </mxCell>
        <mxCell id="twbbHOKhrj83xSpajMzB-34" value="" style="edgeStyle=orthogonalEdgeStyle;rounded=0;orthogonalLoop=1;jettySize=auto;html=1;" edge="1" parent="1" source="twbbHOKhrj83xSpajMzB-28" target="twbbHOKhrj83xSpajMzB-33">
          <mxGeometry relative="1" as="geometry" />
        </mxCell>
        <mxCell id="twbbHOKhrj83xSpajMzB-37" value="" style="group" vertex="1" connectable="0" parent="1">
          <mxGeometry x="990" y="200" width="130" height="60" as="geometry" />
        </mxCell>
        <mxCell id="twbbHOKhrj83xSpajMzB-28" value="rainfallwrangler" style="shape=process;whiteSpace=wrap;html=1;backgroundOutline=1;fillColor=#fff2cc;strokeColor=#d6b656;verticalAlign=bottom;" vertex="1" parent="twbbHOKhrj83xSpajMzB-37">
          <mxGeometry width="130" height="60" as="geometry" />
        </mxCell>
        <mxCell id="twbbHOKhrj83xSpajMzB-31" value="" style="shape=image;verticalLabelPosition=bottom;labelBackgroundColor=default;verticalAlign=top;aspect=fixed;imageAspect=0;image=data:image/png,iVBORw0KGgoAAAANSUhEUgAAAgAAAAIACAMAAADDpiTIAAAACXBIWXMAAAv/AAAL/wGT1/sBAAADAFBMVEX33x723h713R703B7z2x7y2x3x2h3w2R3v2B3u1x3t1h3s1R3r1R3q1Bzp0xzo0hzn0Rzn0BzmzxzlzhzkzhzjzRzizBvhyxvgyhvfyRveyBvdxxvcxxvbxhvaxRrZxBrYwxrXwhrWwRrVwBrUwBrTvxrSvhrRvRnQvBnPuxnOuhnNuRnMuRnLuBnKtxnJthjJtRjItBjHsxjGshjFshjEsRjDsBjCrxjBrhfArRe/rBe+qxe9qxe8qhe7qRe6qBe5pxa4pha3pRa2pBa1pBa0oxazohayoRaxoBawnxWvnhWunRWtnRWsnBWrmxWqmhWqmRWpmBSolxSnlhSmlhSllRSklBSjkxSikhShkRSgkBOfjxOejxOdjhOcjRObjBOaixOZihOYiRKXiBKWiBKVhxKUhhKThRKShBKRgxKQghKPgRGOgRGNgBGMfxGLfhGLfRGKfBGJexGIehCHehCGeRCFeBCEdxCDdhCCdRCBdBCAcxB/cw9+cg99cQ98cA97bw96bg95bQ94bA93bA52aw51ag50aQ5zaA5yZw5xZg5wZQ5vZQ5uZA1tYw1sYg1sYQ1rYA1qXw1pXg1oXg1nXQxmXAxlWwxkWgxjWQxiWAxhVwxgVwxfVgxeVQtdVAtcUwtbUgtaUQtZUAtYUAtXTwtWTgpVTQpUTApTSwpSSgpRSQpQSQpPSApORwpNRglNRQlMRAlLQwlKQglJQglIQQlHQAlGPwhFPghEPQhDPAhCOwhBOwhAOgg/OQg+OAg9Nwc8Ngc7NQc6NAc5NAc4Mwc3Mgc2MQc1MAY0LwYzLgYyLQYxLQYwLAYvKwYuKgYuKQYtKAUsJwUrJgUqJgUpJQUoJAUnIwUmIgUlIQQkIAQjHwQiHwQhHgQgHQQfHAQeGwQdGgQcGQMbGAMaGAMZFwMYFgMXFQMWFAMVEwMUEgITEQISEQIREAIQDwIPDgIPDQIODAINCwIMCgELCgEKCQEJCAEIBwEHBgEGBQEFBAEEAwADAwACAgABAQAAAADaA/igAAAOYUlEQVR42uzBgQAAAACAoP2pF6kCAAAAAAAAAAAAAAAAAAAAAAAAAAAAAAAAAAAAAAAAAAAAAAAAAAAAAAAAAAAAAAAAAAAAAAAAAAAAAAAAAAAAAAAAAAAAAAAAAAAAAAAAAAAAAAAAAAAAAAAAAAAAAAAAAAAAAAAAAAAAAAAAAAAAAAAAgNm7C/+orjeP49/JBCK4p8EtuDs1XHbRuvALFbRGG+oa6sV9i9Swuga3uodFqjgs7pCEZCIz3/VdNJlz596559553n/CvD7Xz3nGHbyJ7QfcnfL8tDlzFnywZM6c2a++NPbOgVc1Lg3hdmW7jpm1ek8BL+3Ev34yZWSHEhBu5G095sNdDIJ/6wcpbbwQ5uh+Us33sEL14Z+coYrTaWMbwgSiD9X8BtPVfmwDjfh9XHM4nQRQeviPNO7vRyrCwSSA5m9kMTS+xVfDoSSA3mtohl/7eyCcF0CPn2mWLTdKAk4LoMP3NNOvHSEcFEDVhQGaK/BmZQiHBBB1fwbNd+peD4QTAmj8I62xOhFC/wCSs2iVU7dCaB5AuS9opXkxEDoH0HwHrfVDAoS+AdyQRav9WysIXQN40E/rnR0MoWUAnokMi/whEBoG4JnBMAncB6FdAFHzGTaBByB0C2Aaw2k0hF4BPMuw8t8IoVMAyQyznGsh9Amgk4/hdro5hC4BJB5m+O2tCKFHAFFraYd10RBaBJBKe7wGoUMAHQpoj8BNEPYHEPsH7ZJRB8L2AF6ifb6JgrA5gLo+2uhRCJsDWEo7+ZpD2BpAT9prY3EIOwP4kTZ7HMLGAAbSblk1IOwL4Cfa7hMI2wLoQg38M4RdAaRRAzuiIewJoHoB7berJ4RNATxP2+VPKwlhUwDefbTbxjYQtgVwLUNweu3rTwy/8cabRzz64vRl2/00IvvxaNhHAphFgwLfPdzIg3OV6fvaX1T1VX0IGwOIOkRDMicn4VKaTjtFBaeGeyDsDKAdjSiYVQWXU/rpEwzWJ4kQ9gbwNA3Y2gmFqTDXz2AcvA7C7gC+pbqlpVCELvtYpMC8shB2BxDjo7I3vChS+RUswvauEPYH0JnKFkchCNEzWZj8V+OgAQkghap+iTXhDeOGVtCCBLCQijJrIVipvIzsR6KhBwlgIxU9iODN5CWtqwdNSADRPqrZVQzBi/qCFzt5twe6kADqUNEoqCi3mxf6MAH6kAC6Uk1WKShpl8vzHLoBOpEAhlLNIih6iOcIzCkDrUgAT1JNMhR5Puf/2XoNhGYBTKKamlCVeIb/Le/lWAjdAnibSjKg7kH+l41tIfQL4DMq2QB10RtJnh3rhdAwgJVUsgoGtPPz6yQILQNYF479O+Pv8EDoGcC3VPIp3EUC+IpKVsJdJIDlVPID3EUC+JhK9sNdJICFVBKIhatIAHOppgNcRQKYSjVj4SoSwMtUsxquIgGMpRp/VbiJBHADFT0FN5EA2lPR8VJwEQkggarGwUUkAE8OFeW3gntIANhGVVtKwj0kgNVU9mkUXEMCGE91b7qnAAngRhrwVjRcQgKoSSO+qQh3kABwhEZsbwt3kACW0pDcR71wAwngWRq0sTNcQALoRKMCC6pAhIf1gyINOXVfMQiHB4B5DMGeEdEQzg6gH0Oy2+EJSACxWQzNjjucnIAEgI8Yqr0ppSEcG0Bvhi5jWk0Ihwbg2UoT+NM6QjgyAKTQHF9dHw3hwADKZtEkB1MrQjguAMynaXwLWkA4LYCG+TTR1zdEQzgqAMylOrkSuCiAqtk0V/a8phDOCQCv0HTf9fdAOCWAssdpvm1j4iGcEQBG0QrHXqgM4YgAPCtpCd+CehAOCAA1z9AaeQsaQ+gfAEbQKv6P20BoH4BnFa3zRQsIzQNAhV20TiBNEtA9ALQ8Swv5P6gPoXUAuDVAK+XNrgihcwB4ldbKTI2B0DgA70e02LYBEPoGgOJptNraphDaBoDiy2i1/GklIHQNAHHrabkdPSB0DQAlw1BAYF5ZCE0DQMwSWu9gfwhNA4AnlWGwIB5CzwCAYfm03h/NIDQNAP1O0npnh0FoGgBq/8owWBIHoWcAiJnGMNhYHULPAIDbMmm9fS0hNA0AtdbRelmDITQNAJ77s2g5/wMQmgYA1F5P6z0JoWsAiLr3JC33KISuAQDlpxXQas9CaBsA0O4nWu0pCH0DQNRd+2mtwBAIfQMAio84SkvldoXQOACg1GMZtNLx+hA6BwAkzvbRQn+Vg9A6AKDqlLO0zucQmgcAVEw9RcsMg9A9AKDcM4dpkcy6ENoHABRP3kJr/OCF0D8AwNNzRUDeB7kpAHWNX8+i+Xz14AwSAFB6zC6aLg1OIQEA3kHraLY+EPYFoC5pWhZNtTkKQv8ALLwS3AhHkQAA7+AvaZ4tHggNAlDTck6O3AVEcgDAFS8dpznWwYEkACAm+XeaojGcSAIAPP1/oAkmQWgSgLouqxiy48XhVBIA0GJBAUPUD84lAQAN3g8wJAvhZBIA0P5LhuJMDBxNAgB6bGQIusPhJABE3XlEngMiOQCg/FsBGvQ7nE8CAHofpjGBChAuCABVVtKYARBuCABRE2jIaxCuCAAYWUADVkO4JAAk+6nuOIRbAsAIGpAI4ZYAMJPqroFwTQDFf6KyIRCuCQBN8mRwWEQHgMlU9TqEiwKolE1FyyBcFADmy9eAyA6gAxWdhnBTAFGHqcbvgThHf6rZAs28TUWxEOe4kWo2IDQNV/SGqe6jonIQ5xhCNT8hFOWm5XNPKZipGxVVhTjHXVTzLYyLvvcESc6CmapSUX2IczxENethWLct/C+BLjBRPBW1gAuVHN8MxrxKNUthUO2P+b92lICJ8qmmI9znhn1cA2PepJrFMKTEizn8f9NgooyIDyBpVQiL3ZZRzWwY4LltH8/l7wXTeAqophXcJS41h/9pRwyM+ItqXoG61t/yAkeqwixlqKgRXKX/Lv6Ph2FA8TyqeQyqKs/z8yJfeWGSplRUFy5S+wv+nzNVoa4JFQ2FmmIpp3kpU2CS26ioElwj5ulsnuMjqLuFinpBSd+/rR7gPZFq/F64Re9tPF9/KJtFRU2hIGkpLyv3Wpjib6o5AZeo9iEvtLckVP1OReURtNLjc1mI0y1hgkZUtA2uUOyRTF5sMhQlBCz7mh515yEW7nA9hG5qZI4K6/IHL8XfA2rup6J0BKnTLyzS7toIVdkMKpoP50tYEOClHU6Akp+p6D0EJXGOn0E42BghGh+Bq4Kjx5zmZS33WPoQyJcQhNgnMhmcQ80QAkPLwm+Bw3XexMKkQMEiS36+QTsZtDN9EYLYdCprAker9EaAhcrriaDVK6CqhihKkzVUUXAfjJtLZTnRcLCoUSdYlNPBJ76SqrK8KFy56flUtLgUDHqc6jbAwdr+wiAcqI/gJFPZDyiUd9RxqtveBoaMpQFz4FjlZvsZlH1JCEazDLOHbHXZREPyXomDMu8UGjEEDuW58yiDdawTipa4l+oG4/JiP6BhO/pAUcJKGlIdztTiOyrIHoaiNNhFdYHKKMRahmBte6i4/TgN2QVHKj01n2rerYBC9TtOA/5EYVr7GYLAp1ciWB2+pEEz4US3HaSy48O9uKzKb9GQKSqvFdSlJ8chCNd+GqBRveE8jdbTkG3DYnBJ1SeepTE9UahaPoYoY2G/4ijUFfdtonEZMXCa2NfyaNTJud1icYH6I9b7aVBWjPLiDHUZS1NaReGSojs88rWfoVgCx4newVDkfDNpdK82dRMT6tTr1H/EhGUHGIKPUYTS+2iKs7/MG9OvVYIH/yu+3jUjZ36ZGZH/GzaU2rgJRRlAM+Wd2Lk9PT19584zNMdBL5zHu5WayIxHkT6kzl6DEw2hJhajaFecor4KasGJvFuoh24IwnDq6xM4Uzdq4W8PguD5jNq6Bg71EXWQgqCU20NNfQunqn6W9ssoi+B0yKOeroVjpdJ+4xGsp6il1XCumN9oN18ighW1mhrKbwYHa5tPm81C8Mr9Rf3MhKO9RHtlJkBBvWPUzbHyCIFcBMZBydU+auYWOFyTLNroQCmoSQ5QKx8jFPJG+GaoeoI6OVwFzvc6bbPGeY+uykOp9BebTptk1oUBL1Ibz8MVqu2jPYbBkPHUxDIv3KHZadrhM8DRBWwpBbfonsvw21UeRj3op/0O1oB7JPsZbtktYdxNPtrteBO4ybBwFxC4HaG45iTtdaYt3OWuMBfwJELTZCftdLIj3ObOsBYwG6Eq+xntc7gF3Oc2H8PmHS9C5nkknzbZkQQ36nSUYfJeNMxw9QHa4ofKcKf6WxkWc7wwR5XPaYO3Y+BW5dfTeoGnYZ5bjzLMsofBxbzjCmixnCEwU6X3GFZ/NYe7ddlPS+1pDZMNOsCw8U+Kg9tVTKOF0irCdCWey2J4bL0akaD/Ploke4zHmminFdB62amxiAxlZ/tphXX1YJXmq2ixwPs1ETk6ptN0R/7hgYU6fuqnhda3Q0TxXP8HTZX9allYrOF8Hy2yvgcijvcfO2iavPnVEQaJ44/TfP7POiEiFRv6K02RPaMmwiTmhmUFNNXJiXUQuTos9DFUex6vhHBKfPxvmsW/Zkg8IluVxzcxBDkf9vci7No9v5GhC/zyaHUAIunpzTTEt2JYWdikxugVPobAt/ahmhD/q0FK2mmq2f3GDSVhq5J9xq3JoAEFG6b8UzzOJ7xtxqYdZVDyN865sza04G1xz8I/8xi8/V+k9i6FyxCVu4+Z9/NpXlbmnysn3t0+HnqJThr8+Nu/nGKhcnaum3VfjyoomohPuua2lMlz3v9g9Zpf0tN/WrP8g0Vzpj8ztGfjUtBZXO3OA0en/ssHy9Z8m755566Tu3ZuSF+75sP3Zzw1tHeT8oh4EUgI8e/twYEAAAAAAJD/ayOoqqqqqqqqqqqqqqqqqqqqqqqqABib6D6DYVL1AAAAAElFTkSuQmCC;" vertex="1" parent="twbbHOKhrj83xSpajMzB-37">
          <mxGeometry x="49.129999999999995" y="8.259999999999991" width="31.74" height="31.74" as="geometry" />
        </mxCell>
        <mxCell id="twbbHOKhrj83xSpajMzB-39" value="" style="shape=image;verticalLabelPosition=bottom;labelBackgroundColor=default;verticalAlign=top;aspect=fixed;imageAspect=0;image=data:image/png,iVBORw0KGgoAAAANSUhEUgAABBoAAAQaCAMAAADaAuttAAAAB3RJTUUH5QkOEDQXQ03gkwAASup6VFh0UmF3IHByb2ZpbGUgdHlwZSBleGlmAAB42q2da9LlKJZl/2sUNQSBAMFwEA+znkEPv9fiekRHZlWZtVlXRmS4++f3IcFhn73PS9f63/9rX//xH/8RSqn1SvmtpZVy87/UUoud39T7979+/hvudP77+0M/f/LP//Lz6++/iPzo4dfn9xe1/HnjXz//84Z/fGC48z8+qI4/f/H961+038ffsf7bB8XfL49X5O/nnw9qfz7oib+/CH8+oP9u6y6tvv+8hW/9fv3z/t8y8P/L/6T6r5f9n/78snoz8z1PjOsJz81/4xN/F/D4/3A9nd80/huexAvD8/L7zF91X/Lnw1iQ/2qd7n9c1fXvu/L378J/8/N/25Sn/H5+8YN/Xczy96//5c9D/ref//nA6yzxP775GX9/87/8fM1n//vt/PX/vWe99l6/u+upsKTlz039vTr+hhd+LPlz3lb45+X/md+/55/GP/XCegdbPu9xf/wzQguRbdkhhRl62GGdX0cYXGKKK778GuNgo/xZfd7Y4njuy93yn7Djy+7Np7Jbg+19+Gn8+1rC+d52vm6EyhfPwCtj4MOCpnD5n/+Jf/7bD9pbkw/hrn+vFdcVNUIuw53zv7yKDQn7LzvKZ4H/+uff/+e+PuxgPstcucF+f7+P+HL4Y1va0XM2+uGFmV//gMQ7/3wAS8R3Zy4mPOzAXcKTQwn3G+MbAutY2Z/OB9XI2fjYgpBznFxlTM9T2Jwa/W7e84bz2pjj78dgFhuRn8Jxqh4v9ioBbNjPmyo21POTU8655DfX3HIvT0kll1LeIvj193nTm9/yvm9929vrU1PNtdQXhKyt9hbbAzjmVtrbamutd76088mdd3de0PsXv+dLX/7K9371a18fmM9II48y3lGv0UafcT4TnJhlvrPONvsKC1NaaeVV1rvqaqtvTG0/O+28y3533W33v3ctXL9t/U///L/vWvhr1+LZKV/4/r1rvPV9//qIIJxk94wdiymw4687gEFH9+yuIaV4uXXu2d0ipyJHrjK7OTO4Y+xgWiHmHf7eu/+7c/+yb1dK/1/7Fv/aucut+5/Yucut+2927j/v23+xa1NvM+7nOjvkMXRRb1Fw4wwKR6KlkUptX05xj/r09Xxtv1z6mHdr3wBRwrdb3t9gyS7umTeOsPvM4+sfnudLuT4A4Dob9uaPTdpzc1dtzt1DH6vOOjK3vvE075Nwrxf3OTbXMb8W68cKVB1dArzYxh1nibuENvjD6mmWktscs88+7h3dx8UNVNARhNwtpJeV8oW58KW+eM7wls763y4538Ptsmg757qWgPu9+6nDvYvF771y0Pu/YRTWp49dV2Ef2dOn3utjh6qA0Yeb194Pe5hvLpN9i+D6g1mE+Ka8rhZjXYOPf0CRej9vD/Muo+9egPidm6eg1vGUstJuZWTMVxf07YABjhnK+DC8a3+YHJdT82a7S+ND+56xNYwulF2+O31xFc5E76OXO34sNAdKm3zaannxznuvq2D+bdevLKz6w5bK6s/7pVkXX5bf8CVum0XEyewO73lLXiHN9019pphqfCuQV6/AWjzs7K2pjfjNtBPG93yDpcDo+ItaQt64utrwU7NnruhrbC92MltL4dnl+a5Z3fy37tXqCLi9nN7xbO5yB96bdV2zjTG+stuKseW05q0LrFinaxX6XOG9AI/Ebe0cBlegA0r4ea4gr/buLz2F+wnVS2TlSspjY3hhfANfj+2wf/N72f6J/dY9OD+x7MiB65s9e9i6OWPvy+tljRtfvtpsNXpGwKo39/0sLODl0M74XXiQLxSO7BivPLKNB3demh+AnQwQhJ+ASd/X1nzb18SNsWVm9U77y+8Ab9rFlfPhX94J+MBMA5b6rs5dPrN/IzWgegEv7M+Typf9zeKLWCpO0KhcVy+79uuRDT6cpb6wl5rH4mjw/hrWeGIvH0dkhjWxy298qe7UOZFxv3EtXCe0BroKvl2u3dvCWPeMfDDHaC6OFGf1noDw2yaIjG2G3u7yTIw6rsxFAf1jQ3249MjebLxI3Q92/3KLazYOFdcUgLve23ghYbk8eGEQpuWRviePCZaVjK9+W3ufyMYtDtG1Gzbb2yrc2lzg7MtHpncDaZxKT1EBxFtM7F3InPeywDcsYXfu9Os9Vay8vBenZ37AZ+TWc+DW77Ja407ZAjZ+Q+ha56SzDqMvfEJlGbCCFR7MKdyLW10csisD2QBHB64S6/tm0WE0TutXOG5P4tAEFj+kDTRjMTEV1o5tcw3Ac3bqXTlf48PPNPgm9tKwJNl9BaRZ0bC4us1izcKmxsAnYhY7J5YKO3k2psUnLnzMei4h4AV088K2v5BQRZguKMhFzP2GhkNM7KtHoz/PZGd7Bw0jePeAGDgQVnEnFpvL39zAA8vkHRLNA9CxB7zyKJoGi4EhS/KxqY9LA06SrpSF5Z1v+sLFJnJeeTk+KQGWb1jr/ThmoDdHgz0tKDP9RQHA8cugXftYqBe3yefl1CPmB8/GAFt5nl6hzhOHEsHcnvbmUG4uBQfFnx62Oez84OAmxvDuCcxxGr+BQYaWcri8ysBv/BXH9oBXWASnHv49wYH5sasLHYi1lTdwlXlycCYup821K6RivjiDa6ZR/GyORH84HDgp4IzDUPF0H15r39gdeNo6H4cVc7iAkZebr5gthgx2FHg2TvP51vrejCtbYNYEt1mczU6yQJmTei64Y4XwlRDr+8wXkgRowGESYiAiDurFFxV84oM/wqntVW6MHucAtmJ7bHH/cJcV2tfyMxcrEiVZaeKU+DQ/pcQ+5wWY4cqAvdVBblCy4Rsqlsmd7xS793BDaNgzjAvrur/6zg6B5sA0kPLLco90YZX46AnFBpbXO2FTXFkLHw6Zo1bCzN/CG7O6q5ZvQQjuPFmrwqL2vTKoteGG19JhTQgQ522H0jgKwFjkqLw3GIt5d0yuc2q//aqxZSsh4fo/DoA8Y0EL4nNBLkD6/Uz9dUOfQRjPFq0FfdlAOz6Ks8plzJuDPHzr+62515fnxwV4FMO6IqeaA5EL3GhyfuWHoCpAWTY2jo19Ajmvx+h5DcdwRTxML2woXwgd0enti9M0pHps2HFSPe8KmN0lTfwd+oWzxVsnvwIyBboFuQAHS8av4ERq5uTgeYHabLgBn4NP47+hYP/g2eL+8roxSn0dHG5yqsrOLxuH8mQ1+uvN3avPHeZ3jf5JMlOZD16gFNiX3KFo4OI4Wop1ftPC54F+vYBUnP+Ml+DosZGgCorqY/sHjhwKlznSrPnSTHQ3SzRik6ELWKC+gCOylg6PKwvQWoD3YaN5I+ePNRJFBo42SBXX0xF28GUOYhxAFH4tsh5I0K9BD4E2VqhBl3LEFcDZWSFwkiOC8AP6Onx93hkSF91RhF2HzpZe3btPXzl6BGBd0QFvKTJcWAmYEALADB49Dd4fOYyo8RbyzQUs6C5uY8mc59b5wMMCuJ8rsAvQLG3ggWbXDRVGW47nKmGJyRO84k2He8wM+D2yOHzpnAluPoE0oBY0wHfVlMGtB9N91VCF1VjfBRxCJjlmWAD+lj9xehNGg5E8HFXwDTBmu26NbQ3eB4MK7zMgGajQgkiqcaYLAoMNQkEebBAK+4SW7yXyTrb79bIO8EGw+V2emJtBDihgerkm3BH7EtO6gAII/OKsQyOA0hd/ofKB1RZAGB/ysS/6W+5vgR8bPlKxOa76Fotgc8jGdYmEXH1/B4qHby6YwADqQNpxw4BvDjVuIunVEALxXSowTEwOwUq9x872d4HUt9se4oK3ANr8/8Xwd0RsYAbsHTuDlIuZJbqh9xt8wzNjlvAHtmXWtCHsoGTPLPPqgDr2gZ/lddwSlCoYjAIcJv5/6hILdwKL01OzeWAXi3Jn9gSXzeXBDNG84CqvfOD8MGm0DAQHSixhhl43PpUjWrDMnHDpAgAI2PHr6DbU97wWJOxh50AQzI0zkPMBxLjuCuiyzkEfCBQa+vNqJhS8D3YA29NJ3FXmfXGiEkbCVy5lMXeKSxn8pmPbvBTh/aESIwYDeUnDkMmbh7jI2bwhYBx5jO4ymPrHz0KsAYYUG+4vHaf5KLiPFR1x+MeDPy+eGxq2e+Pl4EgCd6+PXQGk3QXuNR9nyBt/v4aCrMI1xqXznOgoaGNTHbBu74ebyi8sf3H714obsGBFsMSm2+IFARuY3N4Nw4sF48X+cHnsJ1oB4NapgXf4R3YfiHx4zcUxG3xs6cgrHBxnCTyExSLFb2+Yg1uB4P4hptNZZ93IENQQsdg4VttAnusBFxo+T2OB+eYep7acYCO4NGULVOo7AI+3D/3gFe4d0hLK9yicVk2pXNjn4BYX+vtYE989tO48pVT8BBn8RtYzNF4Cy+DYIM9c6D71HI1TjGK+YLRwUcgHDosbgfrxe+waH19AhIFxcS/SClkSOiAX7HcBEFxKfvvHawA06XFAMDaIfMchYzARwJiYB4oYP83PRlqHlhWV7tqgy5seZKVBJZgWOAjFRGW75MhE9HPL3Ox6FrK5vDcLANEAoABv0LzqUJrCYFSh4ObQtA4hc0nhyFe84Qlj6FQEHnZiS/lR86yQVInD+eKAXyEEIMlsLuyiY1KwlAYyIaCQPxcnud7cBcswK+vZlKbcP+fzRtYcKohjlZvGAgtDMUAtIdCsIwsnjWhvLfN6F3qg9xstijv8PjDnrWgLrMMdQfgW9BPeHO7OjqlIER8FPwvF7g0SWYDBOC6YX3q91Yp7hDMgL+VhHFZewTeBzjeH+DXajT4u2OGCSN/1waDfqU7S5X2Af0c6vDj5AmeTQL53ZcE4ScNMjXw0sxjcDxIXuoHQTuySMYLHiApKCk7dYbUAMCcIgaEVeLjYIPCvw4JQbc9bj98vN+iZEBF4yXC/QDKWjw7E6+GXZr6a/ohlKxuL7ZgbFApYg31AhQwHL8OASLXbJVDH4aQSxB/krvi0r2BHWC0wwhHXQ8K8EFnIb+zkxtwQZ28zT3LzN9jwrQOvLvbNFd8cQNziA/l6Dhe/EAQfWxY3IoZP+ng1IM7prMhYlgTJj9afMQOtmMyOXB9+j/UBMHHNaBnQLoyLo8J37IADNNjRwXuDIkOLRvsCGxWnZJiseXL4vttDxrnn9EKBRPs3r3QFwMz4AcqVg2tgcOyv45WNLmp4lc2E4xsRYIHmY3Cj61BxSZyJgiPl4vP1fftGdpbckmHLBRoixVi2jy1LM0Ng5KWKygCdCK/Uv8iR1OePMe2F2HouuF7j34Bkw60tFPV4uFTwHZvGWtjqjunChFzWRxa2caZc8ge/7gOcqHjc71K4oHYj4oRLrLEPMzB8C3/Qke0Pz8A9ClvQsS5xeI/amRgSqupLmdPfr7dAa8Hr3DmBE747EK/PDZDmY09uKN7I+ClAAC8woMnGfjUAKUYmcIxfuC9ACAqUV1XAmocAekAE9MX0Rico1Ti1X4eyQ7c4DsHwgLHdCt8eUCiOP4d2IIsBChRyww/UkjhAGW3WUn9++S/2GoxaqCQ0Mmf7getk+AJSHZnBlRnvuK+ab2hcfVgU95XrfWrlmEPnFgKU9xtL4FMFe6jqXJPvhxx1PhzNWDkKqPaFZaM4VdxDknCUN78ifv9Lx/wPv/zBarYvUSj199qNg//yrr7bg557JM0/Bf4vAhxsR+sATyusBN0QljOrBmmBSqGy5aJD9tgbNsoX44kEQyhh7OZYM+QcVsNapJUhT5GbD9gBJxw+LUGYuN5+ZRDWSAT7AcuZBvSrLpuTCa4pvBK4iWocG4MADhKHCNSZCMwEbAM7co3nAumUS0uu8D1oxgZ9wv7lOLAJtAbyBtv7srEXmCQ6sngZ1Riov4mlA6GctYaQngWnUvm3pg7zgJCMnT0QBZaFq+eIRaM2+jT8h1f3oRSjytV4e+8XCnx/XI+xE903hnJzGgANiCaAlFY01MhBhmbgz3QlDee524ebgCtxwPnxvo47XBw3yZFhBuhLcTv4VLbFn3IL2KSha0kXbgN2KRolSBYLtFlXpOiTK/8bBhrxOJLgzSZzSFn3GxDlWn80Auu8XU24H/dfFDdoZc5xKS8E+dJ9onDZ6sk2dZCrw20iXBH9jDPg9Acc7AZljCSmYlZ1o4gxbD74xcBqgzNcS1adVZbwQjz5/MWqflZ4ziq+euJHgHCsGVcM3AUc08DuOHEb6+hclkmowmJV9rzJr+qJi0f8PfCEA2FxbzbZmN09b6m6lPmR+gedKgAHtn8VogWVMO2VuE6E8no0PRkmm6YzAGwQcQ9cB88i5GB3WaQWPw2wDq7sY9eKoSl0Hv4BD5VnxCRj0oFDTZvIcne0Gl9qdBJjAODcyzxAfVjpQkTinC6FdRUNEf59ranGwh/Dubr0FKSUNsO+XBEQ2HB7N+HKd/BK1pozxEdckX0y+RMzhg601DmQ9+hDAK4/Fa9nwi4dRcy2pM+IC+/+TFWN7fnAxxkag0Pg+h48+/l8XNiuCGLUP6dvGzYrJ61zq1TgjmAbUtnUgHCQUkWewGUu42ENxVJP/C3xOQXjQAkXzh6O4eGvnwOPMJWBj8GO5oLscIkbmY1Z8jvwCOb8oQtZLi7cJF5cb/udayA4AdMci89IEC7IzMhGSuaEm2e/AfvO/vI37cK5exd472LyYi34F3wLIgwNw4sYM9vqkEcZyWLgHHcw5G/EvJlEfbiVeUEbUR2feStZ1eIDIRPwLMTYOLkI8ESoxaShXoXrexF6T2FB0aXZEEl5gBH4FV7qBQRELfZVbRGgK1jEIbPG2zAzfuXKTgIhNnS5zAZ+Vo18og3nVbupNyj/88IPI8ZWACjkeT6sCoryO3cQ04oT7ejo/bcsNDSlLNwRL/KNV3idEwm+zNCfv/qFd9mtDZbH9Ce/xH/Vh3X98Vp/eS/A/jI+iwu+Rzdvge2fJE/EElk3AGYBka5XZ+WgrGBtTQgMlIo8Y3P0VTXvc93of0PRbBJcjBVkyyFsLFTmEtpQE0NSDHb0XPr4Ft6zxIm7gj2BIJhFRZMBbFA/jiYSHs38mkn4CfMPkgUTh/OzMWjHZew+ANJZQ8LjeOW3INQMr3FF21BkunEXENNx0iOwoNIAjwxJ2jeyZHswpgkfVhiVwG3jrIaUvf0izRfotjd+nZsrrDj7WtMHj4FcQIduI4O9GFwAv9sLo5WQKjujd5IQV7jI8IbLMCHMwFQOHxcxx1Ur8I2c4LNxRctQoalSjzREpiohQ8bB4JCQLuhkDmu/WI1lPg/F8oECdwHg+FLcYjUTMdX0aM0PY39Xes1Xg8ggTccpLVghrtaU08V7kUN9yGZv8/Q4UsCvdFEQJj3m8CvM0cBLb/MyaQMfnOl3wArxtHNDpC82Lbj+GIcyMgxDJJGDxdeyDspccNNSnPFa3xDw1BmOztlYceIKdI8wM7MQEDhIjdzVi0K4gEFIHgRHwVxAOUAEjEQ+sJgHIXHvcEMhLUqBoLkvi62gfrmMijMASgwgwCunoBIm4utlTQweQVgNZnI9z2y7FqRntNwAq0EGXOMUQHDvcABcJhLi5cQEaA3aMnZjJIfb7YioS/yS8YL3bAE2CPAGP93TdiFhUM7DXFtaUJLHFUSZQUYAW66fk33YMfsEvxZfjZvDkiD/OVimBvqnyen/jKUBiwsx/r0n5MC98FpAijVNhg3xDOmeImgadxopBgwbsAUhN7ZkYFwnisMBWj6E0s8RhENs4WpQrFOZ+HJOww0l3EsVjlfmvjvO4eEwf652vcZMau4nxGoKQnCG8YjJJ/HGRXKcLdiCGeIVtdSpPjAGDknj3OFKULtXuc8pRi9EwRpmw+We1C0EBBpo9IaVMCUmwwEDwZB6I/YT/+Je13PYljlIODyijc9+m1UjN6+/OT3SJ/U453KNg7ZxPMY9sfjSFPgBDK+cnDxXw46ad5n5kA4jRz1zRjlBJqoxNGA9otRAAGziMVc9kovDpeKN464677ff44Li1eFllKeYfMbTQOl4aXxuFgTPtaFT2IRJctOBJmIeFVwdSTh8jARikHDd4vsRbH6g0ZaeEwaULHTEC0Ns8dcPbCfGbc1AqiXnEz+JHS44zEHNie83HOzuavUsL+8DivCEKH4DRfg6Y2jmhcxfyYEx167b+1SUqGYutl1jxebVWqfn5QsY//Rc6wSnqwURfyQPJlT5YURXvH9Jpzau45TNPb1/PNyp7Pw3aYRDf16vg5tT0CSjep8VUWBXi3ids0Y7moRBIPNxYOlj0gPJ1ICCbvkgXAaOqnp4zVx8AQQeJ3/Gvb4WLkArLtw8+uWdhohMB0GMpoku88qQPfZzpQnxYSFg3w8+6xi3jGrgBe7fSjzrKjPWwDXCdAZ+BKoHRq/5J5mKxb94hTfx8RbYPI9UKi4Tfdrc/EndlNk1xE9fpj7x13uyHTlC9ZvFB0tFoupc4U1JIgLOcJEw+G7UE9tERLyDqywX0L8+QHKYe49h3UBEg3Y91dg6VBsXg4SxKguJmJRUYSEwCzybo9BiNmOfN7r/Bkun52HWnTd6bQXoy/oek/PDYp1kbWY+gUS0LicCHSK9gLPhB74gJF6YPAyrKtme1lAFGB7Um+WvLNNjPNZsFOs0dePYeodBc+JgZ6Dx0yDpXO13mSXn8CjXJ44dvf9iNDDLF8cf1MZcBvwaDg2NwC1ubAu/w68mOgDCHR8jWpyJeIJnOCF2hFPpmfpMghg7tb4DLc9KivAwaBNQUx6DosNro9Zbsuj4ig+yFRmDKh7COgZeoEwT+2B/P0PbcBPkzBzyLU4boAIjCTi8rUJmf2CFEWD7YFxYGSKksZr4SwiuYR2IO5bNfUBVofOcin6yzeYLjQb0jelDFRB+bN+FUzAKZZjXiA+bEMG/ZZwKU8XqzcwCvm59OjH2EuZzQ1nYFou03gLKFYCt/mKCxWQsAqUANpwBThfq5EECGgufBtReJfO0pI0rngGZi0vEeaHqAZOLr2Eh61kcBDW+7rNA47aGCzedzhp/igjIFidASWrsGFt6OKGQw2TS9bnAJzQ2h9EiFuOHASuW1Bgeb9yQsg/qiC4t3J0r8LOvhOCrlhZavxHyhbrkxnhVst6umEO6MSKusuNjwcdsbsqcTzXBws0NuTMH1rz8/J6jflK/2H38DVsNX+P8wP8A9SIlahyMh6+4o7K7VxTlw1/DdaKZVEw0mbr+TPvXdS2I6Va+Z3w+Ow/HUt+0ctfK0sEKIBMY0204s5hGUMqwJQj3fOqj+R6W54K2cdMLYWbpWNV/q49NuDwIgF9NWQkq4xc2Zz0O68aSf5UfgrTGj0BA6DHEHSjOjYMP20YFjDQMOUpkuAgXAV9lghS/gYBTQHPLcDFYCTeRvoQjum6PNSr6E/M4rslyBjkbrzRoAsGdG8+oxLNuMYGEAFOET4Ze2VDkPvsA84fEQNgMonOXn/li+KvRFcwbpDuCqAULzg5pfY5KfbgNVAhopf62BuPC+UGuI46VExfApOHXGitt6lWIiJkpPpVjXAwkDM/fCzAZ8uVlo3x8xHM9+BM4eiunbmNg3q9y3Mo7vjJZB4W/wytg1ydPFOwAQE6iRzlmu5geBP2ut2noVhl1K2rQIIsNKZyB6mdtddY9zfuMwOLF3S1mNXzeWkJnnJJIPOoF0ocMPQ/fqSZa8xCvP1LyH0KSn/2k5C+caQnjh/yxBONuHAJ0f7YyKZwKFAuCuJlu+R/rPxeOkYOwLTaa5QcSR4HwrhUOPwD1jH7Dan/fhklzOHc13gUKZTSYkYQYb1h2szDz4fphYcpRiIdlR6Gyq9yN1PC7AKqjoWHaxhBZgQktq7DnGYp9Bq9FD3++DI2FZkKs55Ob+HCF1rma7bmQiA/uCYyHDFpsi/8sQOEzrQmBz74sINppm3bC+TQjQrBMPMaAKnDfux8F2VjkqdrHpc040HPYAi+CsOOBlaucRatxE0ZQo9UtMGq+yPDgxp66qJ/aBaUa41HPcROrg7vzrnGouy0cCCZFiuYauBkD3AYTT0XPYya+1MBZrm1frJh+kC2FpHyaH86xY37xhUpGdukT6o1A5nDSvywTUJ3XkyVx5VUJ3M/F9uxtXBIGyV5yFyhrFLkH7LCLt8hDWO0Ng83VeFm12kHn8py4SwaJjPlbJ9isrgAywrixq4VdAm/Q1FmG5YPdyAw0ZVirW/ev2KJY74pTXPCjWi8klwEF7hkns0Q9D/VnIGN0lq8iQTkK0ywxCp5Dhlqd+wnJVOEyyaUWGlfnPS7sDGYWEW2m5fRuXEvYJ6fHsQJb+XDUyM2O8Fm5GYa3zNJQasxtXp/KDMUWPM9L+rTzHc3GP6/pkbtDvCPnE67cTr0FHDBU41Uwvjdh3Pxlgozmjr1XWzca4GklBsi1QQP47ItjMBGqbMaV4XjNJNZ7ddMAhhMOT2IXkkXMMF1js6eLA4LOWVHTlo5S0jcXZUoBXKRyJlGOHGG1rf3CcLpFuvnKCDzoIQDzIpjHO1tH0RnVjBb3IoAj6xmmxUyIs4W+nvYlsBMGFAB1GB2E+oJgAYgJbHitId4JfZ56yx3zh3WwEwFKhBe05p0zg/jlel9rUPGphjXHhpG1Sx16HJ2FoIXdtmYdZubRlu1x1WA1Nq6ghxqAy5xIMBHAxizblB0DqNepwkLhvCnehq0eyQsCAYKNo/nw+/I+SPVt/Kc1dwNgW5jfr5QEJ2Eg+TpJV/yyuQXUqL0650774zJhm+BjjlBzWOVtbItrwTpb1WVL7Fl0uE+4ksEL6G4YJ9swkXR3X8EI87dMU6pvN2oU40dGVqvxP9k/x4CdtH3ge8CPa3u3uC+5UdNnsIF8CMCDWSKgVzJwtHWs7eBDb/LAfrIAMSI3TnldRdOi1HFyeHNM+uOoG+3LfNyYgD8uEDIdzfTpEKXvbUwOJOjMYfd7ccINxhYtXrDu+av9Q78gpONEgYJMqBteBG2cLA+iaMEn0HZI8bsepxXwPRon64dcRylNC7Zhw6ash90Ekc9phxH28c0EBqNfcSEWcOTRdSyPHgfihn3iofu+kmmROqVVAd8xzamx4RWbBLhPsBwRkveDz8SZ7nl63xICAlM34DNsddn5mkAB/CZ8szYOvCtjH4g+DNOd+a+EYtcmg+SJVTcXgBlK36zJy6cmwgpkIF8ezCdbRj+gfT090ulT/lUrMipLgzkuM4ngXHgy4cZxKoW9re3i7KGIOoYOu7TMGEZyXPGWte8C9m+0BtKyVCuE4MAKTtbXSgDrDIfyp7D9FiYGu4yM7sBTWFKr6iydMSRvhf/A3kE3q98BW9xVCkEt5RlK7TOCdyEP8EfohcgN4GW3hYLHbUEr+bfqiY0t8nOWFyhHEUDmFU2QACz4sYz/VNVz0Z/h035iBMmSSF03hK3oAWeILNqHGbw4XGjWCRR2KNOczWLNAOcvF8zoVNVMIxzI3mYdBytoZQ2HCaznEHEIzZl+Ftovi5MwgtI5ZbDyaCn7vK8eF4oLYZpNyCoBjd7w/VhiLxZHwpMDyhpilIrU++Yd8Ev5bV4Z8G32WVynqGtzWXDfPxUO7AlXDeuRZbHbBsh40YNr6CANFvoos81A4qFi2bi2cqWowt/4zNTtbsnJzqUaoftvStZwWFh7exrG4VvNVptoFeXitHwKmAKbctdAtXirasyPcUNW7ygDjYqOaDdMBbUAtxvE5vZ33qc5YeL0erY1uD3h2lZgQpdO2RrfBqu2I8hK/bX6CRYLs/C+zXeBIDsZEpP+x2qt3UYXAJnXIb+WGyAk18s1CaF2IPu3vX+3RbblMTxXYUtRmhGsvT9xkNt0wdEKbL+2OB4zjCxgUdZ7ttEQrzjUf4ZYbgwAfRSnXwBBaWzaY/k8J+xZSAhX8ERxUYfWZEkgnhLw5BwDPLvdADBMmLxFxk95ZVcwlQiVfK3oeYpJLBAS/1KMYWBOLBKUu8s/OH3WWhmn+Pto4Y2KjGWdNqyk4M2VxQKoUUfFSsxkKzBrgdvN8OMWF755KLh5MT4z7GoPEQoOZOLUnvRy/PC60e45NOm4fnXLp0IMaIW2sROs/JceDta0eZcluTkevAVaOsSsU+3w4DqhQjd+8XvvJhmFlYcK2JvHnlYkoFrxu5Y2B3wSJo4fA8oyxnyPU7Kv+JeqvqdG2EL9Cy3GiVi2vNU4Df5xiIpKyMilqQrojHwJT2eNKo58WRQV5TAoeJwMWy0ZxRMltlD5oEoz/TAtXXkzflPA1w8ChcGqP/bS5iQb4GCINp/Ye2SA/LoN7dnLA/+dHcGqw21WobwIWyRlqhZDi+em2LgWw7UW7qRvGWl6rKSY/cIc7xVs0Jpd8Yt6s8RmGj56FVOGRCA5z1dvVKblRgMaosa33wn78I2lXhi4ge5z3J/T18Vf8EM2uJ+6Gk4T+Jinxf8QHfvSSkumbhpCixs2QO/2fyd4wO2/BxQ1IxgUZxztAs+XEnJZp0QUE01s1/rC+3Q0ko08gy3CkQ7osQXct1nmxX0Zk2YnOnQFdo1V4HDN1YwuNOJUoHb6D+vJ46PuC5w5TvwVoJWY17KBOVjCWFx6dhaTgk1hP6eXdFnoDhyb9Tk1uQ2bQCsf9EHCpssKjgb5Gacw44YbJYMPHGubKvb3bQM1yyRahMZ9cAb1aEoQDpM+MAszP+0C04I7JMxZNPYiByD5AE6wEx88qHh2e0PBq4QZwYbXt0c+mcfKNUDPOTvX8z72uUg3zJ8tex36/EwZ2qoGu3+gX2C39o4Dul/k9Qi7SNdP6ogTH9e4vMoXVWJBDvwcMgz8FNy9pah8B8gBTgabzlBDnwtooQ3SBFkBkNsnAJepFw7C7G80FRRhwGZICkj3hcy+DWBRNdFMhmH5QUYO/YA22vckxC1QLdvCULDt70ak5cmtNGAEYPQIWANrwBIERtpBRDnCvJXjwDYgDV4LdzDOG4lY+mXXArwX+Xvy9Rlgs24/2kYAsiLOskVfGF/k3u5RbR7jDH/WFjw4MgsY0FUA2z51gAukHKG/AUazrLwC+c1f3usHsIYyoQSQkW4b8bRMEzpv9BagWHDIYdHJAB9uCC43uy2x8eZP9MGOr/uxIS1YqRFMaL/zT/8pb7Mu1fDPvNgn83YAFxA8DC/wAgUf0hynzxcse+W+7wO80RXY5q3gQqfWE443S2AW4rYt02WpYMGrLLSabwkWB1EsjonjND5A7KDvaalM2cFuh8JgsbFEJIQjDsxoWfAWACtLqS0FPBWENnBjvkmtxJbgFkFFk3obf4d4iWZpcN9AxbVNMt8cTuTvrcXrrrM9jcEqAqAf93/6pliIgajB6FK4V6uWlL/WMKOpy77G6tu8jKeR7+Vilj0h9nDZmMlVr4EeAtJbs67K/iSc+20JIJggjTEpygedFoQshYAOiTYd64Z5s9oWtEKJ3l9hZoaIWP+57mJ3cTOyuKH0QBOk59rIRxjzNHMFeA0DQ9aQdAPA9jIf+YJxgKkAHF+AowmsuV3KQAXrxrGc88K6ZM4TR8atge7lzCuxcO1PiQ1uChOeTwJEwBnbjpAPIH6z89K6MhuVL+S5mRNTI+22UR5pA4rnEk22wLDjLxkIj2d7HlzUrjl3G7T7hBt3+5ARYJdVjU+ZANYTbeLTRI7A46qV9tljig1gEfZ5pvDFjLXpDVgcNMd3aOOnqPmQ/M0kBEZS1mlg5zSsYCI1pWFuZptyzqBkArIw8mYAI8xvv55GdGO+BO9VH+svweRmDPExEOnQAqiTVYMVG5uII9OyqUeTU1Cureri/OCk7Gi+3sr2cvDswwYWTyXX5sSYIUCdWnuE/zGviqlZo1w/oM2mOacYIKyWGQ7Ukc3ZJrqQlEAoF2ZLWNWDw3V1nKcpBVGHme9+artUfXoRwC7aqgXZzPFawgPeq1qyWODZUU4Bbaj8CW5ZIKQWzmIY67Xs3wUopzHTpFbPjk9IDd0/7QN47mT6E8ddLCW1swJMP+XXUFZH1dzqZDgrCDDPRkeUHyTp3KYkAkkKxekFnQKE5dsmcKu0cHr1H60oAT5lh7WnBOeM4wXbOHWTLeerUrhepDq/sRwc5oPO5xR0DoNtXeE04IfPUQtALGQOj8NBeAaHGKoB0G+w/EFZ7Mvy+sTqWHDOF3mqdU429syQ7TWyTMRiixu1wVfrkZefkF5bmDqCDcyel/nxDHyE1SErrLINquwW0gHwfLI5O1vNX0y8GeoatjGxdgH/g4FEGxQxAPCIHcbFgJDeYbFnwTihJRYFjY4HTkjOtbP569PACLAGGI1xF2NbRmf6uNwDdAPH0iqhdZpjGzwf+QZsBdZuno5dQ5n7c4aDacUHTGiO3RkInrX5GmnNtCXN2lWVbVQwwIg8QP0U/qKFbNh8DLzBLry7gJtGH+4AwcDWkUGIGqN+sBETWAZpwSoL9JKxnIxrscf35B7hRh8rnE70lncP54UEKZgEoF8n8g7mL7XjgxrPfEI062TVSYauB6iNDdPpRZSCNurdN0H/Xn67/bsiP0rVzl6uIsKTzUBZyh9O2e6Ey+UTUgW62Ep8vy3tY7GAVqHWjAgyKl7xrsb8R++9gCTQRrb4bZamOKggylpNkMutir2S06yOIVpOEp8WbmMV5juQ6+9pOO+WvRnOQDxxbbV/5vPho0dLCPesn4LKj3wMjsXPdu4ZDJc7S8k2j6cWlQa3g0EEO+U2vMpEu+Wsy877Gn6O0qhJ8Ji8Ob7WweITcIFvYLHPlA9MzUy0BUVAtKcC5+/MkfKrCH8NX+MV3xdFUtosVihHM5QFH4UNrMs7jo2/NwnWbP2BHxUlF5jIDy3Z2e+f2oLVkNDckx3oOP8qbw4LV/y9VwJ2oqGMnAFsm7NjGrPiOx/DHJtbUF1w3EyXQw/PwY+I1ZcF49Ra+ZZ3vIAPs8bQJ9bytQuiSOv4bgQXDtCwGmunqg8ONFKM4xuxRb66nrFVKibU0amQtZFnHUnTrDboSjuFiP+80qS+bNwwrKp+sjCYwwD6A1WPA05eePYjqBjEU+VYwnBbAJtlfxyi19x2hRGD5WhXa6rA1jFYNUeqWONmU8l9WYyzTi4YU7JYj3+57CphOE0LnACLBvBQQSO4AZpmyzAeCngSMp4TPrTsCO5fbg4ltHf1IcKc1D174ryGkrGCWOGAIzuxI0dj61GsxQm+NaEsAkekyXawYxDG2QDOu4ELIP2KqWm2hXeye2e6D5TFkgznyDhSA1ZXh132LOV1Mo+P0wJgjdMUBUByWq5xHJytdp9As6MebocPjG2vOUzOzI6dJgnfi8u8ntiRGQCCsDStDeXm88KnfOVzEkrMZZzKfxzUmZLzpl9JPyBj1nLb6LDiJSo3jEthz21iQcHOCXCHl/FDK4YxUot4rMfGkgGBT32DARxyCbtjGzn98GRjTs42stcGumj7JLIDHwHgLNXsAyNRDwLGD1qNg24Qh7NTzSxp61d2zkICfnDKMYTgSBY7zuxjxJVY0Vp+Jw3qrYtAvBcMwBYmT3W3Z53Vuj6HC1mbJ7W35OGXAJ+SHW52JEtknAQAz7thk8Xr4xaBrHzbPPnIpuONZX/JcDyw4wyRCi5N8yqWVDZNIqrTLep3n9iKWnTMeCHWA6zg7eYi3otf4f0wuIZMzVFifqb3GAM9vZrSmTPt6XV6YbSju/Ri01GM06orxGTK39WgXtZTfhBRI5qnFCcFJ8Lc7RA+fKxwYIllCmoRNqnYW6BbUKMiXMZ7WdVlHUk7MiujfezU7He2S9Seg4wTsb85tGnzImtuAsb2xGKTGcc4ptzDxRfLwJozpECYk3S29PU9BRl4pG3KDwRF9gIo06lZt+INaSGrt/Qn8JLLQjcA7axgc1TbiiHZE3v/Mk+WFXGHHwTH5GDXqixktVQXDhoKSPVp2ZBUJ1rkY7AQACeOpVDw+Mus4HNq7eCWAxrKir0W/IrpkKoTK+Xc2oUfLsUyAOlYk4hD+SZ2BEiW27uHJct9Z3pO0sEpUfd20I5nbxUnAJqYtKL7AhQLCIFUgK7MMznotpGreD2nVsBqX7SirbtovO68h8+sl3UpybotviO0C0qb7Gc33zDfE/ixAG6q7rKtKkY20mswUcv6df10WKBhjmnazMxZapcF6zaVIhawfV7EUV9Q0cjaw6GDZztbLFY6KIXSQ8dyP3NYhb6fp0PQZgP8MRRUjJFqS5SjFDy1X8NO4oP50z5KH2EZYIefs7S43QBlF57DPB3HM11mHsIrl/puqzu8o9ce2I9dbvvMKRtO17HwPgA3ycXj6wMUBjZ2mpLwnleOcNvucKCA054WucLIsC0FMHQ3CHAZr9kE9GhDuoWu96/Y29ZP7gW+ckli8rQE1aYBq4QQjc71ga9bzVhvs57HfynzrRYYToKz7pg7/9ACQxV4caqfE5HUTKJUc8HBVOrxHrZpqcoMllSbFdUDln23HRzjwYs+8/tzPNeylxZlOSyoYlm3ybczvmpZi2ij+VeBp2OfCn1ndnWT8KxDubHQYNEXwg8oxAUZhGH9QkJ1sBFWRNXJYTcw0fmSqv4/3jq8uZ4SdyDUaTmcGyPUV5Cp2d0ewB8W1aaoYWdKkSRvWxhCeZdav5lxzxIi58Fa+V7ztzlB+MB2ymFr+z4IZ7PxfOL32ITJu5PjXsQlB1dkqwPCifB1b7X6Ad62Ueb5IbNs+j5U/xPzLfNHxwibYISjWzkY6k2EgcXSoVr0ZoY0n1izEsMy2XJhhqpYoNCkwOrL+WvYwhstZz7zDep9WrBYGpRscPQGsG2/RSzxFGtXRxfY1bAAr9TSA8m3s4SzAhqONQeXyjpaSmgTAeBgstAQP9DsbEYP7/yMYcdLdtHfKiuEacrQb4e5AaLbUE1SCDuRosPE7nRbnYLTGfAbaFuE5IQ0Yt4fZDQmDvfzsBeAKKaG//2MiwLwqGEUPH7FvmwzwtAbhB57JaGz6QkGFbTLdVlIPy3m72eCgFFJGABO5Yytw7/b2nenvsfhOt2D2FjMoRI2GQiNgebcF2t8SjDLdrCE448KB7bbzmb0CruJ0Ol3Llf04/bWfQbXRWtd0CIOehD1r9vqIy4XnXN36NAjUt/bzGL5tg4T7W77nTFnMBOUaTZXZYcQ+iq8KX5zXhXMBoJ/Iw1nMmKczZujDRzZpeJBTrRwWtKfYkcxvAqX+FY3s9rpAQYO2Ijx52fe5g+wVlwZhA1HINFf80x6+Uxrtpp+KcbecMhbGvpF0w1lwy0srLRCwdzHbFZWjJNCshAZoHxWUBRs23idEgOXQ8UCJg5Jyl8MBqw5ECzVdYYyLozAGTdxBK/WakEomYoGLx1PkRZn10kW6XsMnobbkSPWoWeh36kMjo+z5mLoGwEnFvqMhDWVDq7fyX6wkNF81m44aFE6gFGgoezgcA6S0dBrWbqMa+O4naxhsxmnzF9Xkgwdv+/QNws2EIqYxBP36s9pBxmHnmKaUD94fnS80SmX+pwChCS2gATVk4uF+DaDb1QlquS2WdtqL0gt71KKOBYODHovu+hzBnf2r/KC1UjRtP+jf00dUbvXMo1X1/cr1qugdNAH2SyGecfnXvnidxm/YNPVCfeZBwIPYAHs5f7l/Mdyho910D3bSN9BOiz9HRuJ025gB7keLaO7Rz1d7fNDptTCdhv7QdijezB6iyKcnSet8jzC8T71ZrNvkhdlPW10IKD1WaXjcuaZYONEOWR/sSEMFefEz3JvUGfbLO3UAZxfCaYvTeo4krBf0JKMEi4Taldk2WjbM9NPKWMvK3tnW5sNvaB4BABvK6Igavd23IFzpKBYVzV7i86vsp/u/LaA8LLZEHvaqKgXDa/PteLY0EMYTxsnvr0sqXXomb37F26x3Ef/rnQf2eN8htSf5LwPs6qgf8n2FcBUs/FVmE32+tlKXIGyhwNwoRw+20WKmXiuaps4xulhDK9tAaIjHhNbziaulnX/xZwiXPzEJcwJorkvvMy+XWPZiONgnjO8yqq500W9+PMHLfn49tKR8NzrtJnLXrdpCX9QMNULjDrlx9asmqtUqhhTcKzx/T2JI1ie8dgWhP016xb6trf1s78sP6/Re9vOPosDT1G/8WQT/aeiDMoA4ARoxmtFPAf4s3HlMZruvILmeIsN7OIHsPH1XKxadTijVRR1OQT2RMJsLuFErI0dJbROs0a3YXSO/AI8HPWGMXGvTi+B/0JG+XyUq/3WLaF0hxkMk6TD++VM81UmU18TugA9dhSXiXuHkYEL+g5U1HVKiRxSembKfGKXngJDAFwNBJ5JKG0kayqwPb5cWntCzK8TYyFiARy4OEaoJvtaFHJQFaSQyVo24LHbhGMSs3WB4ELSZba7ma7jCzFkia8TMTv8yIJMWYXFSuabDS+1G0GPB88jmivZzgKzlkom4IA2h4uaCHb8B3rDRO0FTqBY+lMd5pQsAWBL0OPWN4TKp5id2HfGr41mkufJBqcw4ZgtJmTxKr4iXvbYgKDL+oHmtGNDuUhpVlDUwO8IKRjyfB2vhNHHTwGdsxNSTkrWuvTFYrPR1TgPcv1kKpykasyi4wAcqASNPLTAQi+D912VBmJHh+zqei3odGwR2mHYTLyfmWHy0fq9kwuxaSZLTByE9GvB2o7bW6YDss0CljE4cme9rNF9iCp3WgAex6NahAvWIZ1sXXjR9yWcqMkwovvIkro5htML6Jg8pcF3DaxplEOnx3KM/1vO7DlUCC6LrzYBZivxozg9I3kcXcCbkkxPtfA5cOtyECN89Yy3yqf1Sj+D2561DIPBstn0QKAwgWWfA4TPI4s3qw5sfs40sHW9J+FkLGhXA1FfhW9/DkxEIuFmOUHbcJRq+7VR6xROmcDi2KOC1m0O8N7IrGB98jZK19V6c6g4P1QB7PirnELzetO+gjOvL9qwdFvq/tmLYgTYRtALis7hf/A5cEiLVGF627HOcEFb9hzcd+oziwnTAUY6hP3m/vHJ73OGiOuer++kQk7jBA6mG83EdISGGre3aEnvcvgFt2Feyqa2x/Emj/USmFgzcDidf4Qp2acwbFT1rIGgqGV8N/8OKx8sDcHw4LjY23NGp3Y/tJzizOnM+HpBo+75m+PZkmON8Y+fM/2zxNZe2YUpJmPYsO7upCQUkb1fjwMh8DDyY6M1bKXTkZd1wSg7zp21+RytbzzbrevxQcEPh9Phn6cVuU5aPfPrvgxxYxHmhtZ0W7EiXPF21g2HonvquJ1kB7jVwdFNvYFbFvrE4TyUMDc45KNzhLyMy4zFOoldJ/EgsvAizmw8AzphZOpE686Rwj2dwJTBdtu41Hh49Xm6i5FZSvvGKXDyTXlO6M64xgOt4ERG6b2DkpapoeFAui/qtTaruWXn3X7pmq/Hly7bXJ5RfpWQHY7wmoq1H+ATbQV+/oOeMukNG6tB1mUiB3k2bf29+jvwmSf2bQFDtkIM+g7njNua6lMhj+RFJG0L4eE5IM1aXOaLlXenJDoL9uIiUNlSj5tTXaxSqPI7NsKrmOqf2zLbe8Ch2aHbOgVLFKxzsRpxQxSedMFcODQpB+z3dmayHcWWWG2Byz72VpyhboUQa2Y1yP7D5afNU2FiBfN9r/w4Aeq21eeUB6R3QYg/D8Q85DSebkNLXidnwwDJ3nY7/YY8nO55+Px3sXgIFvSnNc7VjKk63ijDIfyvT6uYFgM7mtt1i2DRtukGMgwoOYzf6uDLgYqO7lepq/sgBgmeUDAv3qUoittZ/lA6pa9DfizQNxmlSpl+7JEQqL92ZOHrdLrusLGhoqyna8Uu/8fmvuI4/PqdjmlIjWXV/dZDwZ10trjsmyuvRtmSzcU6S3vUOLjNsQjGlK34Qbpgjz/QrlolTNKAZzVEhF/oV+PF2+iJV8zxlG3hl9HciDFOZHVw7bDuOpmaG3/w/xXrWvxU7/j1G097imOcvWuZCC9dJpqQESBdsCnpC3avWSe6HXgFHe/9MdvmZCnHHDk2ei62f0omIMA+w8FCHnubnTTEgT8zd1hfucm0T/Y0tDvWJ5h2wdMBHuYHzfg1jmdV/0QTfdgMhNBHLFgN89rG0hxK67whi++c0rVkvu4BOLMM6FrzcrmutaoIh10VtyWX03Ijz7vlTBhblsgkK6ai7WGPZRNY5nyyvQevYVYM0pblVDjyztJ4oVeWjlQHh1lRBbR1zlznNr/m7HZLs29HYyjWQ4iOy94d338qCqsjZ2zKgqQ6pNfTmE0IRysHV3HuqWyrsoPF/I3hlVNUgqtySsGYFyTQiXFHNUWH9pajtGCOyOouq8SAk2MUX+VnDb07+93KZfNDwcC0Bdl2i1lrsR1Uip1NafH3ISktcwVV0HpOpN+pfEEB4vSIxCWZNjIf8Bibfs7pD07Ym9OZdPBjVhtipoXaZnsM2bHur7HVM5fXwBC4ZVMUMhDhGasBj2s6dfb+8J/3/P4QlxONwZ6bIjYBnHEPdfMEfjEwy+ZQZdoqHGKzNcDzZbM0oB2cWVBRK+exPdxsOj1oM3DPr6UY7DLYYQTDAh5TafgLZMBvzMkql1FRbyraF/ulhEk9jbNhZ8hrzW2PxjDa6W6HFQxMzBKVXzUPq1NwGd93XxgISiUIRk6U+41o/kKJbEt25n8zwLWs907GcuMp4PhMf39A3esAvIguvDa/4khhajhSziXs5jXtzynb7rj11TcAvZ32YvNhdQYEFGnC5cxKQE3EanZtOBFxGT+DmvlUhIUv5wCe2l+OxakJblqp68KHn7aVAnopJqxuNfyBhGi+w6qJxQtfDBWO15bDQnD8jjDTE0GAX2OsgAoSaNlT73gwRz3Ysg0/qsh7A8XNOZOPsRqbi+5uHPkE6xxhx2E1GGZPodNU2leedMqwNpLZ1MTuEHZAcZ/+LCcR8TGnnWE7J8FCGEHLsh+fTzJOfqE7gN5i+cdnh3A1t6TwwpOgzo0i3AWfyHGF03auyoC17WhI/rtZNmULn4M2hnj2rGms+3QMmcqbVyiliS129jcl8WNhzPOeYttqRbRdAs7Udg5IcywkxzKdZoHhQyzMN9w+gSk5/NB4SLdIxdkjR0XCEjbeHm+jcsYbPk6xnGE68NY8mQkAAH+2YYl9hYz6BvMyLKHzKuWRWKbBcvjrDpavISk6mCNNrNK+WGxEP897Cd4oQH1B3KITxtb3S+Mq5F6fFIG/dYTXgGu9cq9q3NQx8K3bK27dZp6OS26OgZPWdHjfHvepeJ0OptimOga8IQk6Hhe7No7I8qTwN734LIvenObhM3i+XhxW7rRIe87/rBswaFV9tAgP1cz94ohwCYY+WTVHPjju1JlkbLtP4HCo6RVaOhDq2K7uTFyvkG+9HUdn3cJ+TorTB7sIxyBWjTIJU9s2TfKhytlr9J/cszX7CbYtmpGxtB/8x7UqMI2NwNNQCjGdp3xYsG1dZVgmAiEg37wgS0NAxFPBYRArLg7iMDhO3Du1rNerxUtWmBhmgPJ3vJdzCBz6/eqo7V41jg1nxCOqO6ARWVmGwILWWn/zOOIVJ/ICjDqQU8BlK3g0Ou94/H5IhKrOFPHrZHKP67IVI7HcJ6VbJUnCjm1Yjye1p6yzckiF41BPi8XEZTtqA6ZnERK8DBR0YBrwydFAlBS2AZFlMk7ujIA90v0uJmBejJv9cEUlEXYtnQnozXHZzn5vtjfZOMe2GLbFFVr1PnyUjY183LQPIeJDLRWxwBUFqcB46pmxaXwVZb3PQLfzpALrO/OZjGN9THzN3kmnggHfV14YHV9mEfIF4nOK3wglc/IWfIbL+3TKuEhv8anVXBQwFfP+Tf83cf9WJB9mAACbd34vG3sc7WMAKqzu86U+Ty3CwkYdXCkUgD+VYtIPe67LWWmBHYAkAeQOLmzhubLHp9vEwzZy9yuddKbhdSud82NszifKDMDAyfOcsq8Un+GEtIDN4aoW6HMZVq02Mpv/dFK1IU1LuJC69ufKmdIdITnygeAcRsS7JrtsU3eyAPKl1KsU5zgDe9OZzBx2J7Pah+iEDktWrZdQHx0BO6tEo/T02a1x2qqDsxxiuhxKdIo3ygz4MqdCO25XIzcxP49cvu3GTMGAlyNX7CC0d/MdJpkd9XDXS9Fqf+SDHseAWajgschOUDSX9f6eBfA5mFlsB6yWY+I4A/bWCHNOxY6cfh/VlLJqY3+HoTglAN6pTkY0GZKBML229dy/mrYlC3LSBu8dqC1QH8vebObpA8P0QFrwM/sEhITn//rprnZCFWaDgk3Z/o832V4PDh3S205dx3d9aHTcaHSwGzTAkXPb2XIGvl+zItlKn2W6HeGlbuZVL0tYRrqdCZE49NnJ8BC0gLnrGd+h7FMT5t+DSqzaAxruDOOMMPYQrX3uSYVmINP8c9WKoTUqryyNgN7a6XTGZRdj3Muedh8vgI6CdD/DkLM9u7iKtKzMMdxznu3Ch+FplyPvoq0AyTlrHOrTYa4c+5aPt3Hg1QA2ul2L5h/wLj7ewsfYDFv5YVL7OhWdHHchh3vrzkn06RotYaCyjfPso4DDsEwP9w4xgimYfecchvM0DgutL9VwsnoPAekHOsXH557xvSFYoGkpnWOZcUyoVq3ewTqxn5ZQENumRV02NoEreqNr5pxylFk84QiU9sfOblnG51A0Z4Qt+Lhdf460vX2ey5k6esbxnTn9iMDbyd8W6Fm6FKwCVciY0jvF9DNZBo0bh+r4iJN6d1AGH118jBuv9ck5Dtn0MXRWZro3O55+DYup+l6/IXEA0ZnH4vz5bVvHOd4bJExTuYFlcyiN6hYTQjf0scR5w+1hAX4D5+S5jaxv5FoPtm45E98uYnt6EpwYB3SmxOxxJo4Oe7O5DueHhGhL+HnExRm8UbmF1+lEPrMJCmoaJeMjitOOMqQY0XTZkI6kqE6TvLGFxJn+2knQsg8+2ADg0vmAjev+TcU26bXe+3TDWWeSWa4rWR4kY/cBVzA0jM1CptPNlh3GafxiWFeMCx93yc4841id/kaL1IBlpHO8DAbwhewvZ5QL+kbEqecTc7Bx9P6kq9DM5GP0HG3hoK7Xy1iftBpzGXDH67O419JikPcJkFVg0ZeyuMNw4NvQgQjSM+W6QSFYoeUZNH5u5Y9qreNFZLoj/cqLLcdeDg1tNnT7CFCfM6v8yxZ6v05UGSU4RL36DIgt6/JJnXgOwN/BrahESMcZtWt05izcazmBdc9xoTjeE00aZxcqBrNsI/e5upbOpGxHHWzDulpnuW6zHcuJD/uXsHWuUHkxdh+2hRDhRjjwVoeu7ORFXP3t1W+fC3HC3bcgah5knhyWacL7FC89zmOWxdw+8fA+I0Ojg6rac9q8HaLtk7IuH+PnEkuqPyfFscGS6tP54/Qf/QUK5LT3G6MqkJJTgJYcQ18nHgiLvy8nxHe7sqK1QQZ17fIdVmVthxY43WY8OuHf4GC4j2Vw3XrOof3ZKox8vfo41UK4oGQZwx6xwQrW5yN4rfdI+D1cwmo+FRC6ZgH/bde1TwNNzqDOTpx5rteYJS7lcyKNw49P9NAqN0DeIlCL41S2/GaGrLgKaZw2EuP3zWkYPhTMfpG7Wc7haHofrWiFoG0aBvkdgjHO+EaooMPXMyKBrzMftlM00Qg9aM59uRzrYiylctYHthZ8YtHrbL18BuxZVWG3UVJtDetmhz3vxbynXfuavUMcL+j855MJbKm1z3UnW7bYbakfoOp0W8eciowLxAy/Kd6Ox36Dz3K5nYSdHegOtjiSYkF0uJQZIALVfqrbNGFxHLDP95BBQUNMty+fKHS7blA/jmkwsH/lM/Dd57vcZwbsNGW8nldmN8wMOIGpts+elc+5NY9lv+1HJINpyeyD2caVIXRPAGB9cJvDV5YZmXye2wPYdRuyLeDyiXIn4z+h9l90WheqhBPo/DA81FUcGWOLVTKg7twBi/6f+ydE7LkOtqC/Tv0crAWqPLzeNqzu0VDsy2XTL+PD9rI5trk6XtKSz4l3nQ4ww61BoEatOQzzp4Dz72mPnzE0+ALAtuykKpf6zef2ONevdBMCfLXNvKZgTazaWne3evobPlFMYmlwESdqEeFRc469NsgW7Qg15nDjarr12xZ8+SSF7KtBHAcW+CzeM5nDqAr39kg5oZAfbg9Rc3pdbruqjL1H25KH6Yxt88dt4w1s13FSPvLBT1c0OOqqlpqM7zlfCt1/v0eJVNtybeRz/jseqoHjNr4G4DjYpAFZCRZkvl/NhvC3tXDNseHLmHr3qXmOpjDMZuG+j5Fbr0Wq1TVtBo/BEfb4tSzNYRzvGS0RnUfwbS8e2yzpSnh9+77KaV9z2reFPjk4TIULkZD5bCIImvzeOfKP489uyG6K91FLDmvPF6J0+dQDB/niauwLg0I6nsx0KsfYYu7n23+aOH7ZNAyfPXYyKgfsNpdfLviPDxxlf6fPaxjT7KqxoGPC5mpwwUU1Wk63sjp9+CjF/doD8WXrfz47fIHYAX76gFf8lD1uPrR3Tkjz7TOmii1b67OwyaoNK8AeMMkuUh9n+vgcJnbxwgsgPzkHCS8/z9M6BW5o1Xkm7OTzlyXOkPRYdVq3vQa3pSYWtjoQBGyu41J/QCackYdDTgap2SRAHsnkg3fg+TpDExjek62oNu0vHyGVXi9mnQkm1+NDrIypANUB1v9ayuK87OTIgnoKdb+zerYJsOy2aRn0Q+e1Wu36sWh5X5AXp4d9zgrGW/hcOJuCnPfztgrE2UKmK7fsIHp4gAW8aTG5ahac6/ru8/DNM6HFejRHv6ovfX7acgrR1tEFJ7r6cKzw+iipbmeWM64CF/+blbKMolwsaV3GOj5zGUpLmJOomX1MxanftJMzbMNj92fnvbPxRkBXpNOfafXRHS5TGz7Ewh6n09Hl9IQgM7nPmIEenDpaz9NozzjsfJ5vzyr32D/nZmUHRM5rHLWRzgPkg1Gqfh6cZjGyXcz9cTTpZ81Ne9cZ+A5InHKwDDxz1gFvpw5cgPs3fHK1rMhH96Dii+Nmh7EayxTt5+LLk5Vr4/3VEdqHpuaGIszzmNR4KamGnXn2GDkZHrwaKD+DHPukVabzpbhNH3PsU1lQBufpG+YgjDSfetV1DUPkDrnHL57BtZw1y3cfaZwj7Hd0DIsEU7+4LRB2bu6wtdmcb11nuP9VTpv9socAA7JWinMut7NdQC5l7Bn3Khl+fH6nxTrFAdROtUBMDQ/AyubXvnka3TuexVpAS9BP7HR5DeH0E9x2m1sABqWFp9gXMX1wgF41e1z2ZVOf056c5qI3P1MWl/Tchy349LzmpMrobcYJlTFMZpzTLPyHn7hjM+J+2YGI5I/3n/2wPxWa4NPmrKx3YroDLx16/vi4BD10+6KznfJ5lgssiC0IViDoUJ3/eKqhrGtKJ4KFIStLjS2vbBtTHLMpcNp5kIePPjMT6QMouJALK4lnfDaq36ckmRIEwn1egWnyeTsqFu1kltapJ6PczhQxLDgc+wJ0bEPcl/F9oxgoBODG3JJq3RYeN3omO8kd8PuZ4HE4zn0077hlKxbcL2cG9HbZRu6cj1Aep20AEdZ5IlxBPTRs4XimEw5YJ3Rhd5BD4JIGlH2m3udYo/1eZyC7T6SwyFroqMbo7eSHDqCpEOlGth10BBxsLf/03KTsc6qsAkNJfogaJ2hZAXoGI/gYASdmueFOWDnJ5O3InPv6P+uzfgD6P58BAAABhWlDQ1BJQ0MgcHJvZmlsZQAAeJx9kTtIw0Acxr+2ig/qA+wg4pChdmpBVMRRq1CECqFWaNXB5NIXNGlIUlwcBdeCg4/FqoOLs64OroIg+ABxc3NSdJES/5cUWsR4cNyP7+77uPsO8NfLTDU7xgFVs4xUIi5ksqtC1yt60I9BRBGRmKnPiWISnuPrHj6+3sV4lve5P0efkjMZ4BOIZ5luWMQbxNObls55nzjEipJCfE4cNeiCxI9cl11+41xw2M8zQ0Y6NU8cIhYKbSy3MSsaKvEUcVhRNcr3Z1xWOG9xVstV1rwnf2Ewp60sc53mKBJYxBJECJBRRQllWIjRqpFiIkX7cQ//iOMXySWTqwRGjgVUoEJy/OB/8LtbMz854SYF40Dni21/jAFdu0CjZtvfx7bdOAECz8CV1vJX6sDMJ+m1lhY+Aga2gYvrlibvAZc7wPCTLhmSIwVo+vN54P2MvikLDN0CvWtub819nD4AaeoqeQMcHAKRAmWve7y7u723f880+/sBmu9yt495sYsAAA+LaVRYdFhNTDpjb20uYWRvYmUueG1wAAAAAAA8P3hwYWNrZXQgYmVnaW49Iu+7vyIgaWQ9Ilc1TTBNcENlaGlIenJlU3pOVGN6a2M5ZCI/Pgo8eDp4bXBtZXRhIHhtbG5zOng9ImFkb2JlOm5zOm1ldGEvIiB4OnhtcHRrPSJYTVAgQ29yZSA0LjQuMC1FeGl2MiI+CiA8cmRmOlJERiB4bWxuczpyZGY9Imh0dHA6Ly93d3cudzMub3JnLzE5OTkvMDIvMjItcmRmLXN5bnRheC1ucyMiPgogIDxyZGY6RGVzY3JpcHRpb24gcmRmOmFib3V0PSIiCiAgICB4bWxuczppcHRjRXh0PSJodHRwOi8vaXB0Yy5vcmcvc3RkL0lwdGM0eG1wRXh0LzIwMDgtMDItMjkvIgogICAgeG1sbnM6eG1wTU09Imh0dHA6Ly9ucy5hZG9iZS5jb20veGFwLzEuMC9tbS8iCiAgICB4bWxuczpzdEV2dD0iaHR0cDovL25zLmFkb2JlLmNvbS94YXAvMS4wL3NUeXBlL1Jlc291cmNlRXZlbnQjIgogICAgeG1sbnM6cGx1cz0iaHR0cDovL25zLnVzZXBsdXMub3JnL2xkZi94bXAvMS4wLyIKICAgIHhtbG5zOkdJTVA9Imh0dHA6Ly93d3cuZ2ltcC5vcmcveG1wLyIKICAgIHhtbG5zOmRjPSJodHRwOi8vcHVybC5vcmcvZGMvZWxlbWVudHMvMS4xLyIKICAgIHhtbG5zOnRpZmY9Imh0dHA6Ly9ucy5hZG9iZS5jb20vdGlmZi8xLjAvIgogICAgeG1sbnM6eG1wPSJodHRwOi8vbnMuYWRvYmUuY29tL3hhcC8xLjAvIgogICB4bXBNTTpEb2N1bWVudElEPSJnaW1wOmRvY2lkOmdpbXA6NDAzZmZiM2UtYTMyNy00NzNkLTlmZjktYWE0OWJmYTUyYTcyIgogICB4bXBNTTpJbnN0YW5jZUlEPSJ4bXAuaWlkOjFhY2FjNGQ0LWVjMGYtNGRkOS1hZDI4LWYzMzQ1OThlMzcxZiIKICAgeG1wTU06T3JpZ2luYWxEb2N1bWVudElEPSJ4bXAuZGlkOjI4ODU2Mjg2LWQ2YWUtNDhiZi04YjU0LTYxOTI1NTMxNWViYSIKICAgR0lNUDpBUEk9IjIuMCIKICAgR0lNUDpQbGF0Zm9ybT0iTGludXgiCiAgIEdJTVA6VGltZVN0YW1wPSIxNjMxNjM4MzQzNDUyMzU4IgogICBHSU1QOlZlcnNpb249IjIuMTAuMjIiCiAgIGRjOkZvcm1hdD0iaW1hZ2UvcG5nIgogICB0aWZmOk9yaWVudGF0aW9uPSIxIgogICB4bXA6Q3JlYXRvclRvb2w9IkdJTVAgMi4xMCI+CiAgIDxpcHRjRXh0OkxvY2F0aW9uQ3JlYXRlZD4KICAgIDxyZGY6QmFnLz4KICAgPC9pcHRjRXh0OkxvY2F0aW9uQ3JlYXRlZD4KICAgPGlwdGNFeHQ6TG9jYXRpb25TaG93bj4KICAgIDxyZGY6QmFnLz4KICAgPC9pcHRjRXh0OkxvY2F0aW9uU2hvd24+CiAgIDxpcHRjRXh0OkFydHdvcmtPck9iamVjdD4KICAgIDxyZGY6QmFnLz4KICAgPC9pcHRjRXh0OkFydHdvcmtPck9iamVjdD4KICAgPGlwdGNFeHQ6UmVnaXN0cnlJZD4KICAgIDxyZGY6QmFnLz4KICAgPC9pcHRjRXh0OlJlZ2lzdHJ5SWQ+CiAgIDx4bXBNTTpIaXN0b3J5PgogICAgPHJkZjpTZXE+CiAgICAgPHJkZjpsaQogICAgICBzdEV2dDphY3Rpb249InNhdmVkIgogICAgICBzdEV2dDpjaGFuZ2VkPSIvIgogICAgICBzdEV2dDppbnN0YW5jZUlEPSJ4bXAuaWlkOmY3ZGMzNGRjLTU0MTQtNDVlOS1iZGFhLTgxMTE5MTVkZDBjMyIKICAgICAgc3RFdnQ6c29mdHdhcmVBZ2VudD0iR2ltcCAyLjEwIChMaW51eCkiCiAgICAgIHN0RXZ0OndoZW49IiswMTowMCIvPgogICAgPC9yZGY6U2VxPgogICA8L3htcE1NOkhpc3Rvcnk+CiAgIDxwbHVzOkltYWdlU3VwcGxpZXI+CiAgICA8cmRmOlNlcS8+CiAgIDwvcGx1czpJbWFnZVN1cHBsaWVyPgogICA8cGx1czpJbWFnZUNyZWF0b3I+CiAgICA8cmRmOlNlcS8+CiAgIDwvcGx1czpJbWFnZUNyZWF0b3I+CiAgIDxwbHVzOkNvcHlyaWdodE93bmVyPgogICAgPHJkZjpTZXEvPgogICA8L3BsdXM6Q29weXJpZ2h0T3duZXI+CiAgIDxwbHVzOkxpY2Vuc29yPgogICAgPHJkZjpTZXEvPgogICA8L3BsdXM6TGljZW5zb3I+CiAgPC9yZGY6RGVzY3JpcHRpb24+CiA8L3JkZjpSREY+CjwveDp4bXBtZXRhPgogICAgICAgICAgICAgICAgICAgICAgICAgICAgICAgICAgICAgICAgICAgICAgICAgICAgICAgICAgICAgICAgICAgICAgICAgICAgICAgICAgICAgICAgICAgICAgICAgICAgCiAgICAgICAgICAgICAgICAgICAgICAgICAgICAgICAgICAgICAgICAgICAgICAgICAgICAgICAgICAgICAgICAgICAgICAgICAgICAgICAgICAgICAgICAgICAgICAgICAgICAKICAgICAgICAgICAgICAgICAgICAgICAgICAgICAgICAgICAgICAgICAgICAgICAgICAgICAgICAgICAgICAgICAgICAgICAgICAgICAgICAgICAgICAgICAgICAgICAgICAgIAogICAgICAgICAgICAgICAgICAgICAgICAgICAgICAgICAgICAgICAgICAgICAgICAgICAgICAgICAgICAgICAgICAgICAgICAgICAgICAgICAgICAgICAgICAgICAgICAgICAgCiAgICAgICAgICAgICAgICAgICAgICAgICAgICAgICAgICAgICAgICAgICAgICAgICAgICAgICAgICAgICAgICAgICAgICAgICAgICAgICAgICAgICAgICAgICAgICAgICAgICAKICAgICAgICAgICAgICAgICAgICAgICAgICAgICAgICAgICAgICAgICAgICAgICAgICAgICAgICAgICAgICAgICAgICAgICAgICAgICAgICAgICAgICAgICAgICAgICAgICAgIAogICAgICAgICAgICAgICAgICAgICAgICAgICAgICAgICAgICAgICAgICAgICAgICAgICAgICAgICAgICAgICAgICAgICAgICAgICAgICAgICAgICAgICAgICAgICAgICAgICAgCiAgICAgICAgICAgICAgICAgICAgICAgICAgICAgICAgICAgICAgICAgICAgICAgICAgICAgICAgICAgICAgICAgICAgICAgICAgICAgICAgICAgICAgICAgICAgICAgICAgICAKICAgICAgICAgICAgICAgICAgICAgICAgICAgICAgICAgICAgICAgICAgICAgICAgICAgICAgICAgICAgICAgICAgICAgICAgICAgICAgICAgICAgICAgICAgICAgICAgICAgIAogICAgICAgICAgICAgICAgICAgICAgICAgICAgICAgICAgICAgICAgICAgICAgICAgICAgICAgICAgICAgICAgICAgICAgICAgICAgICAgICAgICAgICAgICAgICAgICAgICAgCiAgICAgICAgICAgICAgICAgICAgICAgICAgICAgICAgICAgICAgICAgICAgICAgICAgICAgICAgICAgICAgICAgICAgICAgICAgICAgICAgICAgICAgICAgICAgICAgICAgICAKICAgICAgICAgICAgICAgICAgICAgICAgICAgICAgICAgICAgICAgICAgICAgICAgICAgICAgICAgICAgICAgICAgICAgICAgICAgICAgICAgICAgICAgICAgICAgICAgICAgIAogICAgICAgICAgICAgICAgICAgICAgICAgICAgICAgICAgICAgICAgICAgICAgICAgICAgICAgICAgICAgICAgICAgICAgICAgICAgICAgICAgICAgICAgICAgICAgICAgICAgCiAgICAgICAgICAgICAgICAgICAgICAgICAgICAgICAgICAgICAgICAgICAgICAgICAgICAgICAgICAgICAgICAgICAgICAgICAgICAgICAgICAgICAgICAgICAgICAgICAgICAKICAgICAgICAgICAgICAgICAgICAgICAgICAgICAgICAgICAgICAgICAgICAgICAgICAgICAgICAgICAgICAgICAgICAgICAgICAgICAgICAgICAgICAgICAgICAgICAgICAgIAogICAgICAgICAgICAgICAgICAgICAgICAgICAgICAgICAgICAgICAgICAgICAgICAgICAgICAgICAgICAgICAgICAgICAgICAgICAgICAgICAgICAgICAgICAgICAgICAgICAgCiAgICAgICAgICAgICAgICAgICAgICAgICAgICAgICAgICAgICAgICAgICAgICAgICAgICAgICAgICAgICAgICAgICAgICAgICAgICAgICAgICAgICAgICAgICAgICAgICAgICAKICAgICAgICAgICAgICAgICAgICAgICAgICAgICAgICAgICAgICAgICAgICAgICAgICAgICAgICAgICAgICAgICAgICAgICAgICAgICAgICAgICAgICAgICAgICAgICAgICAgIAogICAgICAgICAgICAgICAgICAgICAgICAgICAgICAgICAgICAgICAgICAgICAgICAgICAgICAgICAgICAgICAgICAgICAgICAgICAgICAgICAgICAgICAgICAgICAgICAgICAgCiAgICAgICAgICAgICAgICAgICAgICAgICAgICAgICAgICAgICAgICAgICAgICAgICAgICAgICAgICAgICAgICAgICAgICAgICAgICAgICAgICAgICAgICAgICAgICAgICAgICAKICAgICAgICAgICAgICAgICAgICAgICAgICAgCjw/eHBhY2tldCBlbmQ9InciPz6iAFv8AAAACXBIWXMAAAsTAAALEwEAmpwYAAAAvVBMVEX////v7+/l5eXh4eHf39/c3Nzb29vZ2dnV1dXU1NTS0tLQ0NDOzs7KysrJycnGxsbExMTCwsK/v7++vr67u7u5ubm2tra0tLSxsbGvr6+srKyqqqqnp6ekpKSioqKfn5+cnJyZmZmXl5eUlJSRkZGOjo6Li4uIiIiFhYWCgoJ/f397e3t4eHh1dXVxcXFubm5qampnZ2djY2NfX19bW1tXV1dSUlJOTk5JSUlFRUU/Pz86Ojo0NDQzMzMAAAAPh2lrAAAAAWJLR0Q+SWQA4wAATFJJREFUeNrs3YeO4sjeQPGZ2f3uvZvjhJ2cOpLBgI1d//d/rE9HwZZQG+E20PTs+Sk1DbixXXVGojzwJB5cQpyHBd7jE/7ET/gR/8N/8St+xn/wDN/hGZ7u9OSknuIZvqv9H/6H73DXC/8OP+AnPMdvuELcl0rEY3C8NJgG0yDT8A4rRGc3GCC6WCEOYoUv+IoPCFzgF/yE/9T+i1+wVYXdaeg9x+/6XaP1jv/DL/gD7/Aef+AX/I7fam8wQ4kl4iBuEf9CpsE0mAbTYBpMg2kwDabBNJgG02AaTINpMA2mYY64n/9DdJaQI9CYIk4lYYzPuMWo9grP8ROe4X/4Cf+HZ/ge/0P3NPReefi+9hSNZ/gRr3GFOK4C0eZ3/ICovUH8e2wQx2caTINpMA2mwTSYBtNgGkyDaTANpsE0mAbT4IXS73AmV1CXGOMKH/Eer/EKv+FnfI8f8TO2LjD+D/6HZp4e79rnZo3kL/yKplovcYkZ4sEN8QS7s7KEabiTaTANpsE0mAbTYBpMg2kwDabBNJgG02AaTINpGONBR+HfiM4SMoxxgwtc4x1+x0+13/Ej/oOnd/geTTMOGIln+AEv8Bbv8a42Q5ylJ9j33t9hGvozDabBNJgG02AaTINpMA2mwTQ8ZqbBNJgG02AacrTuekKBOL0JpvgRA8SeCkxwibd4jT/xAn/gF/wXJ/uc2Gf4FW8xwAxjVIgH8hqhfZgG02AaZBpMw06mQabBNJgGbTENpsE0yDQkHG//14gHkmGCMT7gM/7Br/gBz9C7BU+xx0P+h5cYIB61CyREDwnxuBQwDabBNJgG02AaTINpMA2mwTSYBtNgGkyDaTAN53FqnuIGh3l9f2IrWAtEZx/RXCjdLFMc6dNhgT9xiVNM28BuK8ROt4g9vUR8u0yDaTANpsE0mAbTYBpMg2kwDabBNJgG02AaTMMG/ftwvq7xN+JwXtd+wlYkGq1Tft80/IZbRF+/Iu6nwhLxGFwhzodpMA2mwTSYBtNgGkyDaTANpsE0mAbTYBpMg2mYICE6KxGP0DM8wRjRwwZDfMIv+KHW5KJ7H75HNB4sDcBTxPlaIc6OaTANpsE0mAbTYBpMg2kwDabBNJgG02AaTINpADb4VlYoXmOf/cczvMPfiAMb4H/Y91rqp7WPiD1dILDbO+yxqScIHYppMA2mQabBNJgGmQbTYBpkGkyDaTANpgEYIv49nmArcS/wDp8Rx3CJ1io8w38R9/Mn4sDWiB6mCDTWmOIG8a3LYRpMg2kwDabBNJgG02AaHj/TYBpMg2kwDaahJ9MwQfx7PEWc3q9orcL/8BwH/GuvEQfRZHTLCnEQUwwRx/U74kRMg2kwDabBNJgG02AaTINpMA2mwTSYBtNgGkxDwlfEv8JP2LpqeYRT/N2mBXdV4Q98QBxYQhzOW8RxVQg8+n/HTINpMA2mwTSYBtNgGkyDaTANpsE0mAbTYBpMQ7tNLb5Nf+AXfI+4wxcEXmOF6OILmgZ9hx/wrPY9/sB7jBAnsER09h/ECYwRPZgG02AaTMP5Mg2mwTSYBtNgGkyDaTANpsE0mAbTkGGCAdbIECc1RTy4KW7QLCt8j0tEm1fYuhT6P/gJf6FJ0g94iQniIa3wGS9x13XdcT8Zoos54rEzDabBNJgG02AaTINpMA2mwTSYBtNgGkyDaTAN7RJucY0hpohHY4pX+IA4iH0nyNZ12M/wBoEBVkiIk1oh7vAG3Z/WIxfbPiO+TabBNJgG02AaTINpMA2mwTSYBtNgGkyDaTANpmGnz/iCW8SjcYuf8az2A6Kvp4g2z9BU4U/EY5Ahzs0cpqEf02AaTINpMA2mwTScP9NgGkyDaTANpsE0mAbTMMNbjBAnlRD3s8RLPMPT2gzRQ9ObF9g+sviM6GyBOIjde/k3XiN2+gXPEKeXaqahH9NgGkyDaTANpsE0nD/TYBpMg2kwDabBNJgG07DAC7xB51HY3wrRw4/Y+saoZmdu8AtiN7xC7HSKiTREdHaBOJVfcZpdPX+mwTSYBtNgGkyDaTANpsE0mAbTYBpMg2kwDaYhocAG0cAIL3CFOU671wtED5+xdf3yU0StQKBA9PAV3ZdbjuxnxAPJcOQT/3/4jJf4AXFG1vg3p8E0mAbTYBpMg2kwDabBNJgG02AaTINpMA2moUSBHNFAwgIrRJsKcZb+wDNsVaGPX/EE0cAbPMffGCEeSLMsE22eIE5lhU5JD1RYY4wv+BPP8RM2eIrtGJ8F02AaTINpMA2mwTSYBtNgGkyDaTANpsE0mAbTsMS+36U0x131WOO8TgjwHE9rE/Q/gNh3cg0RR/MGgU/4Az/iC2KnW0RfXxB7+hOxpxni0TMNpsE0mAbTYBpMg2kwDabBNJgG02AaTINpMA0LrBCdVdi6uUG0eNhwvMMHxB02iN3wGhlal0L+RBzO34g7/IK4nwJxEBmii094ivjGmQbTYBpMg2kwDabBNJgG02AaTINpMA2mwTSYhoQlckQXCTNEA2tUiBPYIPr6hIROixPHd8w//h5xOH8gzlKJeBimwTSYBtNgGkyDaTANpsE0mAbTYBpMg2kwDaahMccUMyzRe3QlxEFU2OB4f2iBPd67/4oH6MNXxJlpP1ZPETINpsE0mAbTYBpMg2kwDabBNJgG02AaTINpMA1bSqwwRuypxKB2iTiuCnF6W/v2DHFgvyHafEZ08QZxh04nuU+CL/AVYRpMg2kwDabBNJgG02AaTINpMA2mwTSYBtNgGkxDIGGMGWJPqRanUqHE8TafIdo0afjmPcGpljj626CEaTANpsE0mAbTYBpMg2kwDabBNJgG02AazpJpMA3dVwCahNwgHtwBCzXFFQKN54jH6ilipxXiuBLe4OyjYxpMg2kwDabBNJgG02AaTINpMA1HYBpMg2kwDaahcYvo4hX6ztj+lphggRL3jMkX3CLwK57hm19qWCKO6yWirzVyxPkwDabBNJgG02AaTINpMA2mwTSYBtNgGkyDaTANx3ur9yW2+pBqBeJUxpihz6hZ4AKf8FBVeIHDVOE3dG/9UbxG9LDECNGfaTANpsE0mAbTYBpMg2kwDabBNDwc02AaTINpMA2pFthtgl9xiWltggpLxAmUGKBPGl7hEt8hzsN7xJ5+R/TwFNHZFFEb4EcEGh8R95MjzpxpMA2mwTSYBtNgGkyDaTANpsE0mAbTYBpMg2k4iK1wvMYXJATWGOMWBeK4FlhhiQpxP3/jD8SB7Q7l94jaE7xG1DLECTzBM8QxZIj+TINpMA2mwTSYBtNgGkyDaTANpuH8mQbTYBpMg2l4i7jDFK1VKJEj8BGfsfW4Cis0NwONFaJNiYRoUyEhkLDGBnE/N/gZPyJw5L42ntRa7923LYdxgxniuBIq7D5gqZbDNJgG02AaTEN/psE0mAbTYBpMg2k4KtNgGkyDaTANfebkCDNELce+m2+bJf3lWCH6+hULxHG9x+55/zOi9g+e3CGO4SmOt/lOIZ8gztcKpsE0mAbTYBpMg2kwDabBNJgG02AaTINpMA2mYU+f8QWfcYkFKiTcIPpKtT1icjIzPEccw98INF5g95LEw/uCeCBrzGAa+jMNpsE0mAbTYBpMg2kwDabBNJgG02AazoJpMA0LjHCFL3iH13iDLzhGGvqrED38iYQ4gf8i0DhKl5ZodjAegwpNGoaIc2MaTINpMA2mwTSYBtNgGkyDaTANpsE0mAbTYBr6SohagSE+o8tzt3+XsMdCRIWEAgfcmVbPkBAYI2pvEXt6j8BuLxG1N4i+El4jzleOPWZYwgAzmAbTYBpMg2kwDabBNJgG02AaTINpOD3TYBpMw5GZhkaFDa5wg07rAyX2vaNAhQlOd9gQXR3/ZWiFwAKmwTSYBpmGbabBNMg0tDMNpkGmATANpkFnngZXKApsEFigScORZejycvsbIB6XHxDfiBwTLLBC1OZIKLCAaTANpsE0mAbTYBpMg2nozzSYBtPwMEyDaTANpsE0lEjYoMIKC/xVyxA7VUi4646+U76/NaJ2gfhXuEXr/paI0/uKBRJKRG2JOaI/02AaTINpMA2mwTSYBtNgGkyDaXg4psE0mAbTYBpSrcTW7wa4rr3EG+wxqXt8XVWvZmywxx0DxKPxX8RjUGDfE5pwhQJrJARGiP5Mg2kwDabBNJgG02AaTINpMA2m4WGZBtNgGkyDaWhfUbjCBZbIsMQlPiHQWCBHPAZjxD0oR580NDLcYooMayywRJwH02AaZBpMg2noTKbBNJgGmQbTYBpkGkzDlgwJI3zBZ0RthSkWuMBbrBBY4xZx5q6xQZzeC8Qd/kCckRLRWYEce2xggWvcIMM1xlggIWobxEN6+GCZBtNgGkyDaTANpsE0mAbTYBpMg2l4YKbBNJiGhECO2NMVJshQIO6wxgwTDPABUVtgijg3cwQaBeLBTRFo/BfxQBLifmYYYIKETjPsFq0n7ytMg2kwDabBNJgG02AaTINpMA2mwTSYhodkGkyDaRgjuhhhgoTd42KDBdaI2hcUCHzFBDkS4iENMUCcwHeInd4jsNs/iMclwwCtJz5HoESOMRIqtJ7GeECmwTSYBtNgGkyDaTANpsE0mAbTYBpMg2kwDaahu1SLPW2wRJOGRsIVpniBBZao0P3N8KNkJaERJzBBnLkFDrOBDW6x+3FD3KJE7PQSK5gG02AaTINpMA2mwTSYBtNgGh6SaejONJgG02AaTEP3x1XIEDtd4wMGaCLR6fWtET0MER38iyOxQZ/5kmGGhGhzgQUukbBveT7CNJgG02AaTINpMA2mwTSYBtNwNkyDaTANpsE0mIb++mflOd5ihRL7bjRDjujhC+KMPEF8c5YIzBE7LWtNjRL2yFQF02AaTINpMA2mwTSYBtNgGkzDuTENpsE0mAbTYBoSorOEDQ7Th6/YoMQeW5mid7/miNNbIR6DDSboPXI6bWCMHNvPOHOmwTSYBtNgGkyDaTANpsE0mAbTYBpMg2kwDabhLH3F7xhjgd0fUjvHBtHDAHEe3iHOSIE4mhwVos0cJeL8mQbTYBpMg2kwDabBNJgG02AaTINpODbTYBpMg2lIiL5e4T2GiDYZ4nAm6Ltv/T1BPKQNrhBHk9DIEG0WuGe/ZjANpsE0mAbTYBpMg2kwDabBNJgG02AaTMPpmQbTcJ4KBDZY4gYL7DE7C/ROV47o7iHT+gxxEGOcdlcLBBLmePhjahpMg2kwDabBNJgG03AMpsE0mAbTYBpMg2kwDaYhIXpItX0LsFtC6+bXiANb465XkBBnaYXAbq+xOwiXiOOaozXGa9xihOgioUDvY2UaTINpMA3HYBpMg2kwDabBNJgG02AaTINpMA2mIcMYcRAlEqK2wQwrbBA7bdAvXS2B6b44ccZp+B5xbhICjQqBRo6EwBI3GOIwKw9Nb5YwDabBNJyeaTANpsE0mAbTYBpMg2kwDabBNJgG01CgRBxOQoFOJzMhsMBdvek9UHe7wbmvS6wRuEF0scJpq9DdHFPE4VSIUzENpsE0mAbTYBpMg2kwDabBNJgG02AaTINpMA19vcbuQVlig9gpx11nL2HrISWOPEaHiDP3BNHFw8+m1twua1Fb4AYbxKNmGmAaTINpMA2mwTSYBtNgGkyDaTANpsE0mAbTcO4Hf4Hux3iDJaKLOXLEWZoj0PgOcRAzHHpdYo0lth5XocAQS6wxwRUS4hEyDabBNJgG02AaTINpMA2mwTSYBtNgGkyDaTANfS1xjQpxPxvscUeGwBSB3Uqs0P0i8AuskXAmBX2Bv9Fn2n5AnF6OhK0qrFFghoQlDj2lEkyDaTANpsE0mAbTYBpMg2kwDabBNByNaTANp2Ua/Paq3nOoQOsL+ooVdr/mCeaIzla1hK07HmqcPUE8VgmBORbYYIkZrtDc22fKJ7hCYRpMw7kxDabBNJgG02AaTINpMA2mwTSYBtNgGsYI5HioI1Eg2syxxwhZYYIxOg2xFRb4ghLx4G4ROz1DnKUMawQSxhigwg0yLLBCfEtMg2kwDabBNJgG02AaTINpMA2mwTSYBtNgGkxDl7d/CzzU/ifEHUoUmGKIEQpEF3O8xUeE+r/lXyJDYIYpbtD8NKttEF1MESdmGkyDTMM202AaZBpMwzbTINPQxjSYBpkG09BfjgfY8gK3tSGii4QB3iMhdqoQ37AKYxwmKwsMMMQlppjgK4YoEciRsHtFq7uPta+oYBpMg2kwDabBNJgG02AaTINpMA2mwTSYhiMyDYBpSIjztUK0SZhjiBG6v+s+xBvs8eAxEuIh/YHAbiUefnXjuvYFF/iMC9wg0MgQ2KB1osdO12j+xgBxIqbBNJgG02AaTINpMA2mwTSYBtNgGkyDaTANpuF3RJuP+BvXOJM0JDQCjTkyRGfvMUZgtykCO2iNCoElLnCLr/hc+4hrJLROqRtM0Wlx7IFCbhoA0yDTYBpMg0yDaejINMg0mAbT8PiZBtOwU8IYn/AcfyOwwGmP9ggJsVPCHPuuHmwl5AKBRokZhrjFGnHmniIe3BxDNEG9wTU+41PtIxaIc2UaTINp6M80mAbTYBpMg2kwDabBNJgG02AaTINp+IS7fvcXOv/P+f42uEJC7LTGAjPsSAjQfReWuMEFxhggTu87tLa092E/YBoGuMZXDHCBZoXiCz7jFrGnPSpdIiFqFRLiaEyDaTANpsE0mAbTYBpMg2kwDabBNJgG02AaTEMXBV5jit7DqbuPCOxeGUlo+hBIGOILFmgdP9FFiRtcYYCEePzuit0M96zMGFf4igt8RLMu0fTha+0CQ+z+ANkc0WaIETJ0OPGmwTSYBtNwRKbBNJgG02AaTINpMA2mwTSYBtNgGtaoEGh8QoHdz40De4sMgTUmmKFCoNFErBlxgd3mmCBDdHaU3S8Rx7VGHE3CFE1lmhWKT/iMrxhiimvcosC+hWrGxgLXuMI1TjZPTYNpMA2mwTSYBtNgGkyDaTANpsE0mAbTYBpMQ18zxEEk7L73BbZ+l2GDQCPDJZqbnV7LGAn9d+akPiPaLBA9XKL7IE9YYeu5BYa4wDVmuKtaU3Q64kMsMUWG1qOxQaBCHIppMA2mwTSYBtNgGkyDaTANpsE0mAbTYBpMg2nob4WjzJxU2+A9YqcMN3iF7kHYPYcS4hF6h+hsiee4QPQ1R44RopZjjCkKBBpzjBFd3OAWGzxM102DaejPNJgG02AaTINpMA2mwTSYBtNgGkyDaTANV5gj7rDG7mm2+4QkvMcNorZBhQkucY0rxE4Vos0crZk6yiCq0Ht7zxEHkSMOJ2GCBW6wwBobrLFVhcYYGaKLFQZICBR4gOCbBpgG02AaTINpMA2mwTSYBtNgGkyDaTANpsE0fER0NkVggrvSEDvtrsIF7loPuUYzYErEQQzxAGnIEY/BAt3TsESgyXyqrRFtCsxxwFYtkCNQwjSYBtNgGkyDaTANpsE0mAbTcCymwTSYBtNgGkxD+zEZILqYo0LUMuQINDbIkBBofEGgMcNJz157Bkp06sMa8S25Rewp1RaYYYURbnCLUS2wQVY7YN0KLJFhjCWitoFpMA2mwTSYBtNgGnoyDabBNJgG02AaTINpMA2mod0QcT8j7FuZJbb6MEWgcYnTvvVeoXWQV4jOhvgGIjFBdJYwwQ0GuMYVxrUVtqq6whrRV44JVsgxQutrNg2mwTSYBtNgGkyDaTANpsE09GAaTINpMA2mwTT08Qqth/ISFfZYCjnM8kjvWZwj2qRan89XGGGMDGtUiON6gjiuhH2zMsUcGW4wQ46EQIkMC3SfYRkCCReYYIPAAp8RR2MaTINpMA2mwTSYBtNgGkyDaTANpsE0mAbTYBq6zNP/Q6fVjRm+4gve4wMO8xb4BnGHAp1OSIkV4g5rlIgeprUZ5siQI47hI+KMTFGgREKTixkmiFqGETLMsEcLNgiM8QZ/4iXWtff4is94jwwl4nC+HtdveJxpMA2mwTSYBtNgGkyDaTANpsE0mAbTYBpMg2lICPyBFWKnAq13zND0ZnsgdH67e4WEQInWV9AnNRWirwxNahLiX2aFEhVKZBijQqAxxwyB3l/3NcHfeIHn+C9+xA94g+2z/1iZBtNw/kyDaTANpsE0mAbTYBpMg2kwDabBNJiGxv+w7+QaIzpLWCH2NMYagSkW6JS9RoljXkeshDkGmGKMYW2CqBWYI0dLw/u5xkc0CxZzrLDAEc+laTANMg2AaTANpsE0mAbTYBpMg2kwDabBNJiGDH8hdlphhDWii4QSCdHFEle4RoZOW6mwwFbnek/5HAUCilhjhCvc1MZYImozzDFFHEOBS4wRJ2caTINMg2kwDabBNJgG02AaTINpMA2mwTSYhiFiTytM0T0NjaYPBfbNygIZAhvk2PeFrxH/Ht8h+hqi+0rQBFe4xQQVAo0plpghYY2jBCtqFQIVTANMg2kwDabBNJiGezINpsE0mAbTYBpMg2kwDaZhgS+YINr8g9ipQsIBz16FDBXiaDJ0WJJ4xH5AiXhIBW5r0SbDHBkGaGrUW4mEPe6t0G0wmAbTYBpMg2kwDabBNJgG02AaTINpMA2mwTSYBmCGaDPFGLFTwvEOW4GEOIaEBTY4zH6MEdq2rM0xrsUdPuMLJigQWCL6WqIJZY7YyTQcJw2mQaYBpsE0yDTswTSYBpkGmAbT8GiYBtPwWJXYYIoScWBr7LsYs7tkcb6eYIA4vYQlEgIzDJEQtRWucIkholYheihRIceyFrUVShRYIc6CaTANpsE0mAbTYBpMg2kwDabBNJgG02AaTINpSNjjd91P8AYzZIj+us7sPZK0Qjy4hDg3CQvMMcUYAxQINK5xg2skBHLEcWWYo6yZBtNgGg7MNJgG02AaTINpMA2mwTSYBtNgGkyDaShxnkNxiTiwNXrv1gznOb2vEA9piaYFE9xgjAXuSsMAqXbkdG1Fp0IcgWkwDabBNJgG02AaTINpMA2mwTSYBtNgGkyDadggcIv/4C3iGEr0OYXdJRyvNyscZt532ssMcb7WGNamGGJRCzQmSAhsMMeh47nAccpjGkyDaTANpsE0mAbTYBpMg2kwDabBNJgG02Aaji/hKE/L0H2jFRKON6+adK3RZ1cT4hsxxQhNGm4xxQJzbBAoMcQMa4wwwQLRV4l9E5whwTSYBtNgGkyDaTANpsE0mAbTYBpMg2kwDQ/JNJiGhBK7x3dCn1wscc80lNja3gIP1cgSFbZ+t0acwCWizY+IvmYYY4QmCBOsMa8FGgOMcY0hCkRfS+z7YcAZOoxE02AaTINpMA2mwTSYBtNgGkyDaTANpsE0mAbTcGwVOmVgg30fMkSJ6GyDHFGb4niLBEvsDscKUVthgQLR11NE7QkCK0SbAaJFt6BmmGFeW2KBGZa1QGOEa0ywQI7TTszWU/EZCWe+BGgaTINpMA2mwTSYhuMzDabBNJgG02AaTINpMA2nfW0LJKyQsMfT9n1cgRIVoq+tUiQU2CAhekgoanGHu9KwRJ8//hLbfXggS8yxQoZVbYSmFBkCjYQ5ilqfS/FbR06FOCrTYBpMg2kwDabBNJgG02AaTINpMA2mwTSYBtNwhah9QOA9ui81JCwQXVQoEGiUCCSssUTg0MMk1eJwNsiRcNegzLDABvH4bdAUr0lDjhmaO5o+7HGNeZzUAj1mrGkwDabBNJgG02AaTINpMA2mwTSYBtNgGkyDaTiyAjlWiJ1SLcfuZYol1ojHJSFHhhXWyLHAChXi3IzRqfVNGuZYYo0FJmiOQYEVMuRogrDGBgkFEo6SiwzRhWkwDabBNJgG02AaTINpMA2mwTSYBtNgGkyDaThfBSpEFyXWKLF73WT3vQ8voUATibMbXT+i0+nJUWBVW2ODpgUlCjQdWWDrp+YZgU0txwH7sEYclWkwDabBNJgG02AaTINpMA2mwTSYBtNgGkyDaZgjzsMGrUXJsEZCIOGR7WUj1eIYniCOa4m7Lo9eIMMSJRJKNFHMMMfWMzYosPUTNn3SMMO+HwZyAdNgGkyDaTANpsE0mAbTYBpMg2kwDabBNJiGhmk4/QhOOPQ4iztUSCiwQYbY0wJxbkqkWpzKLVp+1yMNwAqNJTbYGjQbrFAgxwZ5rcAaG1Q4zNDLkCPucIM3+IBoU2CBBNNgGkyDaTANpsE0mAbTYBpMg2kwDabBNJgG0/ColQhskKPADGvEThXiLCXkqPCga0LdrbHCGglbv8tQoMIKORIqlLUKBba/YazWBLXP+Z1hirjDB7zBR7Tu+RXiuBJ2Mw2mwTSYBtNgGo7ONJiG7kyDaTANpsE0mAbTYBpeIB6hDaK2xhyt38heoPs8SDjFe8olciSsUSJO7x267+oKy9oaOdbIa1srS3dN77vmfVOPhNY+FIg9DWrR5hafanMEGhd4i+2zf2ZMg2kwDabBNJgG02AaTINpOD7TYBpMg2kwDabh8RagiwVWiFrCBguUaB63RoWEqK2QanE0JbbG/ApzFEiIE7hC9JBqFdYoUKGpQtQq9AlvhRLdN7VE6+Y/4yMuELUx3uEWM8R5Mw2mwTSYBtNgGkyDaTANpuFYTINpMA2mwTSYhoR41BLWiC6WyFAhdlojQ0IjTqDEClPMMK0tamskxNFcIvrK0bSgrB3vwDYh6p6GhLv68Anv8QHXCFyiwhLxqJgG02AaTINpMA2mwTSYBtNwBKbBNJgG02AaTMM3JSHQuqLQSLUcK3QaNafoQ6qVyDBH04clOq1QJMTpJZRYY4PAvrldYL5TiXuesiZOWxELDBBI+ISL2gBzxC6mwTSYBtNgGkyDaTANpsE0mAbTYBpMg2kwDaZhjBECjXd4hl8Qj0GBEgVip4QNRlggcMBIJPR5WkJVKzFHhoRHUe4Ndpe7UWB+P4FGQmN3ggO7K/MFV7jEF4ywhmloYxpMg2kwDabBNJgG02AaTINpMA2mwTSYBtMwRez0EtFZQvcH91kGSLUNAruVmKDJSkKHXeibEKD1w04bZa1APBoJu6vQBGGBeQ8FWsdV3M9F7Qsuar2rUME0mAbTYBpMg2kwDabBNJgG02AaTINpMA2m4ZtNwwpHGWIJXfLTPzoJ0cMKS8yRoUCg9fRfYoa2V9UuUNUS7opJiSUSGrHTCovaCnFu1pg3+qcBuGts5CjRfcZe4CvGuMANoq85vtk0mAbTYBpMg2kwDabBNJgG02AaTINpMA2mwTScwgwjxHElRF8lNrWEGdZYYowKa0wQGKJEYIMcFRJ2Xwrd+qb+BgVytH5ObIElFnfIakvEA2nq2zhKGioEGhskFLUKsdMGgUZCjt7zI4dpqJkG02AaTINpMA2mwTSYBtNgGkyDaTANpsE0rBF7WmHrGRkS7jpTW/MqOqtQIlCge2AqNJHYWkxY4RZD5GjSUCHQGoQCG5TYoPU7nCrkWCFDQllrbi6xOw2Nk43HeWdNGhZofaV7JCTQujhRoESF1kBvEAc2wxABmAbTYBpMg2kwDabBNJgG02AaTINpMA2mwTSYhsYKsdMcCXE/OUpUiC4S7nlviRUKbJBjiUCONZbIEBhh91/LMcEcq1qFu9JQIscSGwTuis4SWS3QyNC7DxUyTGuzWok5ZrXuVYguCuxOQ6utvjaRLbBBHM0AI5gG02AaTINpMA2mwTSYBtNgGkyDaTANpsE0mIb7rVpsEH0VmGGKJQ5zoXSJhAKrWjOqFwgkbGo57mrGHCUyLLFCQiBhhTXuyl6qdcroAntEO2sTbVZ3aE1Dq90tKBE9ZNjecq31EFco0dwM3LVItalFXxMsEfgXpME0mAbTYBpMg2kwDabBNJgG02AaTINpMA2mYYSoJbxDnKUcfVYomhYkFLWtC5Y3aNq3QoG7vtY+xxRNzlaY1BK2tlchkDDDDW4xROsH0s4wxhSdjl+GxnKnTmmYozUN3T+nuNMHBC/atLYvtWmqUCBH81OJhLifGQL/ijSYBtNgGkyDaTANpsE0mAbTYBpMg2kwDabBNADXuEScrz5v5c8xxBQlcjQKlChqgebBG2xVZooKgQxLXKJCYIGmw40MF2idByWmGOEWa9zzMK1wmDRsEP11zXyFhN1paOTY9w8llGhdpiiRarsvjp9ijBUC/740mAbTYBpMg2kwDabBNJgG02AaTINpMA2mwTTMa1FbY4VAY4roLMOhD8zuL0UvscQcK5QINNZo7k1oLUWjdWduEbUMG2QYYoMbDLDvLFmj+xFqjc4S90xD/ynfQ0L3PiREo/OqRYESFbZXuWplLfoyDabBNJgG02AaTINpMA2mwTSYhvNnGkyDaWhlGh7+wuaEw4yfhLtWGVZYI0OFuxMC5LWmFAVax8/WRodIKDDBAENMMcMQC8wwxxIZFshQoAlMQnRRInZaoVMa4jwUCDQWOEwfAhW2QoTU9KGsNVWoUMA0mAbTYBpMg2kwDabBNJgG02AaTINpMA2mwTQc1xBxHjaInTa1AluDY4k5WvdyhTlyzDHBFOPapDZFY47GopZjhq94gEPXRDYOLCH6O0IfKqQ2FTZIqGpdFidMg2kwDabBNJgG02AaTINpMA2mwTSYBtNgGkzDL4gepog7FDjM4FgjOquwx73L2gJTJEQtYYUMW8sjTR/GtREaE2wlpCnFCgmBt6gQx5Ch/yHurMJp09Dnuund9zbiwNZ4/GkwDabBNJgG02AaTINpMA2mwTSYBtNgGkyDaejgBnEqF4hjSKhw15WuS2RY1CpErUSGHGUtR1OUrT4M0RhjghGWiDtMMER8mxJipyUO04cMCXukocJ2GtpKsX3z/JkG02AaTINpMA2mwTSYBtNgGkyDaTAND880mIa+V0bvPp69r5xdYoUca+zeSoVAiRXKWqrlWCHDCmsUSGgssEKThhW2+nDXT00ubjDAVrXOb572WKRa4J5/d40SvfuQYYnoryUNge22mAbTYBpMg2kwDabBNJgG02AaTINpMA2mwTSYhq6W6H4xbELHo91ijSUKRJsNlkgI5NigrBVofrepbZ3lAhVSbYMlNmhalWGBOaa1pgqD2g228hOd3aL7qN7j25d+xCXiMWgy0GqF3lXYbasP//o0mAbTYBpMg2kwDabBNJgG02AaTINpMA2mwTQs8A7/4AHe+C6xNQmb3wUaJQok7N5ok6kSGZZYIaG8wwYFtiZ/iQp3pbB5SFFrSjHFLUYY4hZDrHFXBeMYSjQS4lGr0PQ/a7Os7fFVawmdBvV2FWoV/rVpMA2mwTSYBtNgGkyDaTANpsE0mAbTYBpMg2kAKvwH79HpaddIiPOxfYLXWKBEjiYDzU9NLpoqjLHVh1QL3LXskWFYG+EKN2hk6HIt+rYJorOEo6ThJ7RP4D2tEPezuwrtfegiocLWQTzjz3AwDabBNJgG02AaTINpMA2mwTSYhv5Mg2loYRpMQ4cDPcdTRGcl2qdoX3usRuRY4a5nrLBGgQ1SrcBWGipMMcEca2xQoagtMavNMUPr5dEjLBBtmmbs9gUzRDdHGLzPEOdhia0qHLoPuwNYIXoo8WjSYBpMg2kwDabBNJgG02AaTINpMA2mwTSYBtMA/I5o8w+e4gmiixvEThV6NyNhgwIrVAg08lpVWyNHgVTb2lSTkGaiL5FhjQVmGGOK7Q+GrU1qQ8yxewwUiD29xxq932uPU8kQx1AhasvOYttD59Y0mAbTYBpMg2kwDabBNJgG02AaHp5pMA1dmAbTAHxE1D5ggebeJ7WneKBhsl2PhH3PRYWta4HXyLBVlDWWyNHcXGCODM1Dlpij9ZuqxhihecY1lggsMa8VmCNHx8nQQVZbYoUmj+dZhQ32fVzCPfuwQkKnFnSvR4lvNg2mwTSYBtNgGkyDaTANpsE0mAbTYBpMg2kwDf/gTzzZU9TGiNoc0VeFQEIcTYm8tkHCDCsUyNBoCrDC1kSa1TJM75AQaOLUOkVLHPlobDWywAZrxKO2wl1p3T8NwAZxDBUKbPDNpcE0mAbTYBpMg2kwDabBNJgG02AaTINpMA2mAXiGPYKwryE6vY972u9NSphjggxNGgqssESGBWZYYI4VmptZbY0MzTOmWCPHElsHIkfUciQEjjdqEgIFlmh2PyG+TSvsUYVGgeih7SL/bSVS7ZtIg2kwDabBNJgG02AaTINpMA2mwTSYBtNgGkzDCL/hBh/Q5OInxIFVWGOB7kMxIbqokJBjihlW2NpyiQoZJrUZMhRYYo4Z1mg2kGFrt5bYYPfOFNj+FqTjamLXWCLOQ4boq8JWgnenYbf1Tjkaxf1skPCI02AaTINpMA2mwTSYBtNgGkyDaTANpsE0mAbTMEXc4Tl+xC+IA5tjUluj9/4XWKD1etQcTRWWuCsNqZZjjq3ljBwTzFFghBXWSLUNJhhia943uUgo8ACLNjkWmGOBNaKHF4i+CuTYPwNAQuy0XYWjpqG/hLNOg2kwDabBNJgG02AaTINpMA2mwTSYBtNgGkzDEG/QaejE4ayRY4ElSlSIHiqMsTXXNrUKM0wxQ4YmFwmBRkKBqtbM9iVmGGGCqBVYo3ncFE1gFmi6tF2tE2gykGFRy9Bno3EQFVa4Z/tK7G7LCuefBsA0mIb+TINpMA2mwTSYBtNgGkyDaTANpuGITINpWCMe3AIzHPAt1wq765awxBhDzDHCDTIkBBolCowwxQQrzGtLVEgIVFhgXrvFNTJUyJHVYk/fI+5ngwWaiM2xwBwZ4lFbYo/YrWEaejANpsE0mAbTYBpMg2kwDabBNJgG02AaTINpOCdrZMgRJ5WwNZ9HaHJRovU67CHGmCA17mjBFCMMMahd4hoLFFgiQ2CDCisceeasanPM0ETiKK9ggVOslS0xQWC3EueehoTYKdX+BWkwDabBNJgG02AaTINpMA2mwTSYBtNgGkyDabjF79h9qhPiwDLEHQoskWOOKcaYIbBBhg3WmGCABaLNBMPaLSa4xQDXmGGBDaKWMMcYp1gxWqI5GjMceZmiQJxAU7dUy7HBXcPxjNNQYa80AKbBNJgG02AaTEN/psE0dGMaTINpMA2mwTSYBtNwhTipFwg07vqGp1SLLspaYIUCrdFJyJBja31giAWa3y2xxhBzLJDQOubnGGGAcW2EMRZYYYkNSkwwrcVOq9qviC62Pkk3w7Q2Q4YKcT83iC5Sbfcd3RUosUZzM2GPi6fXeNA0bLBHEEyDaTANpsE0mAbTYBpMg2kwDabBNJgG02AaHigNwCdEZwnRQ44hlljjrnMWtRwJrS9oa1NbmvxUiNoUGeaYYoJm7ma1GcaYYlGrEGgkrDHHGBMMMak1m5ogagtc4QYJsdOfiNp3iC4S5lhhisYCWyF/eHNEDxvkKBFtSpxdGtq72cY0mAbTYBpMg2kwDabBNJgG02AaTINpMA2m4dRpaIwRWOEW0cUA+z4tIcMGu8tT4a6ZU2LfC0ZLVCixRIEZFsiwwArz2gJNM5qYTJCjNZlLZBhjgaiNMMQcJZpgXdRukbBPtHs0PMMCTQqntRnmWCKOYYHoLEPsaY27+lCgwu7ZlKNTGgqcIg0JZ5oG02AaTINpMA2mwTSYBtNgGkyDaTANpsE0mIZtCTeIgygRaKyw72tZIavF/eTIahVmtTmmKLDEBAvkGGGCplUVWidhU5kp7tqtNWZoUjjEDa6xQMKR15MqNGmYo+nDpDZHhejhI1pfbkKcSokCCft2uECTgdOmoUSnKpgG02AaTINpMA2mwTSYBtNgGkyDaTANpuH4TMMZKdH9OtgSh/m7CVPMscEUYxRIqLBGU4oMy9ocrZ0rMUeTn6YUQ4ywrAWa17JCnNQcjRkWmKK5WSIObInABt1f+BrxkEqcIg3dq2AaTINpMA2mwTSYBtNgGkzD8ZkG02AaTINpMA09rlb9Ay/xN14gkCE6K5EjkGP3e/x7vOGesMASgQIbBHKsEZjjEkMMkCGQYysDE6yQoWlLE5hAY4YpmjRMMMIFLrFCoEKBFRKih7fI8QKxpw1WWKAxwxLR2XMMEUczQRxYqkUXGxQHsUFjdxXOPw2mwTSYBtNgGkyDaTANpsE0mAbTYBpMg2kwDXMEGm8QXSzRuj5QYIE5FtggahtUiC4qrNBamRIrbDDDBDdY1Wa15sF5bVa7623xhDWWmNemuMRnfMUlShRYYIYMfdIwx1PM8Rc6TYY1FtjaheisQpxK04cFHrQUCRv0DkKjrFW11IVpMA2mwTSYBtNgGkyDaTANpsE0mAbTYBpMwwOnofEVzxDom4ZtOQa4RUITju7ba2wQO2WYYoEVitoKa6ywFbEM89oCgYSteTXHDGPc4BoXtQFyrNAckilKJFSILl7jKT4jOpthiq2v7IojONPUbBC1Aq2Pq2pxh95VaJS1rZuNCrvDYRpMg2kwDabBNJgG02AaTINpOAbTYBpMg2kwDR1c4yPiGApk2GCNhAXGCKxRYoYSgd0S9khDM9zXaAqQYY2tJJXIsESO3Wspc2zNsGtc4hoTBApc1qbIUSG6WGCCj5ghOmsKOsEMc8QZSYg9lYg95YidmmjnSNj94N5VOP80mAbTYBpMg2kwDabBNJgG02AaTINpMA2mwTQ8vAwzlJihKcAE73CFMRKWiMPJMa1tfYzCACNkSLUmWCtsEFijwl1pWGBWG+MKt2hSOMctbpChQEJ0McdnZLW4nzmmWCIObIF4NEr03oBpMA2mwTSYBtNgGkyDaTANpsE0mAbTYBpMg2k4mrxWovVDVicY4qBvTwNrzDHFDCvM0aTrBkPs8RX2G7R+nX6qrTDFBI3AALcYYoImntHFR/yEH/AJcT8JGUrEees/XlaI40roU4V/cxpMg2kwDabBNJgG02AaTINpMA2mwTSYBtNgGt4jdtpgjUAjYYqqFthtidipQoGEAoEFJrUR5lhhghuMMUOgUSE6KzHACCs0aZhijhwjTJEhdkr4gFf4Cz/hFaKHDeKBrNB9ynd3gdNmajsIp0pD4FzTYBpMg2kwDabBNJgG02AaTINpMA2mwTSYBtPwDtHmJwR2q3Doi1KnuOszXEsUuCsrt9iKRIEczQQeY6tpW6npZIoRAtPaBBkWGGOCOTpN5Vf4DW8RnXU/ZRni+LZn8RrRwxd8RBxYgRKBRokNTINpMA2mwTSYBtNgGkyDaTANpsE0mAbTYBpMQxe/Iroo0fvN8BnmmCHH1vYSAo05hsgRmCDDHANc4xZDjDBB9DDENZYoMcUtRrjBLSZo/VzSD/gLW+V5jr9xi+ir9WNjt/J4hUkt7ucz4lQmWOG0l2X3TgNgGkyDaTANpsE0mIbjMw39mQbTYBpMg2kwDabBNDxcH4ASKyREFznmyLCVhtbLsmeY1AKXGGCCG1xjgqYPOfoMkxFuMUNghmltgCH2/fKuCQJv8CdeIvpaYVgLrDBF3OESVygR5+E9+lxpnRCHU+FbT4NpMA2mwTSYBtNgGkyDaTANpsE0mAbTYBpMwxH2dY0puj+t9+DNkbB1xwZRq9BM9ClWGGNrXeISQyxQYI2ETju4xAxNdMbIUWBUG+AGEwR2G+AWr/AO0VeGQW1UG2KEuMMFPmGK+EZU2L7Z1wYJFXpXwTSYBtNgGkyDaTANpsE0mAbTYBpMg2kwDQ/MNPyDODcFjrflBeZYY4M5BrjCDUaY4gojjHGFAWYosUGnNDRVGOIKTXQyFLhGc3NW2zeen5EjDmKEWwyw9SkSt1igdcwvEQ+t/+DfII4hIdAo8TjTYBpMg2kwDabBNJgG02AaTINpMA2mwTSYBtMwQftre6wSojapbUVnhQVmSBhjiDlucIWb2lfcYIwRtnoT2K3EDFe4rDUTLkcz1xKaBuWI05viFnMs0bTgFhPE+XqK6CKhRKoVKHHPf9ZSrbnZfbGjQqcqmAbTYBpMg2kwDadiGmAaTINpMA2mwTSYBtNgGtqMEOcrxwol9ljnaF09mKBpQYUlmiCMcYOr2jUGuMU1xlghwwax07x2jUvc4gYlFphijRwPH+0JblCgeZElKsT5+gFPEH0tMcVW8LtHpxFoLNC7D+1VMA2mwTSYBtNgGkyDaTANpuF0TINpMA2mwTSYhgu8qt2iRNRWiPOwwRIb7LtMkWo5ZhjgunaDQS2QMMUlPuIrbnFZG2GJAgmx0xJjNJu6xhUqzDHCACOsUKDTJLzCAgdcoVhggOisRJxeU4VDq9D9X9wCa/SpalU7wzSYBtNgGkyDaTANpsE0mAbTYBpMg2kwDabBNKwRO33Fr7hAnIeEPX7XSLU5hpjXxrjBNUYoELURtlYomptjrLHCvmd5a4Wi6cMSOaYY1cZYYYNOaRjjMG1uWnWLhNhThg3i9J7ieGlYIbpY1w44Ic4rDabBNJgG02AaTINpMA2mwTSYBtNgGkyDaTANX/AOJXYcT+A/mCAwRPRVIHZaY4I+x26DhECBFcb4jOtak8IK19hqwQ2GGGOEKXLEnga4xAUGWKLZ6WbLC+zVQ2COrQnc2xADNIa1MTJsv9JTWSLu8BFxRtaokHDofyvPIQ2mwTSYBtNgGkyDaTANpsE0mAbTYBpMg2kwDQXmCCQsav/gd/yC53iGJ7WniANLGOAL5viIMWKnDXYftgJNCkuscY0Ml/iKWyzwFV9wjRFusLVgMUSJTvvbRGeJDEuUSOgzi0eIg6iwxC0GuMEa8eC+oPUfrgL3vKq6whccZbEt1eIYUsM0mAbTYBpMg2kwDabBNJgG02AaTINpMA2m4ZRpAAoM8RIjRO05ovYHnqDxMzoN1KjdImoZvuATPuIL/kaO6GKM3aVobs4xxRUucYMrfEEzGT5hgmvMMUGJ6GyAMZaYY4HOQ2zbLT4hDmxQa45BnK8/EDvdImrPENhtjQPO2OOt9JkG02AaTINpMA2mwTSYBtNgGkyDaTANpsE0PFwaGl9xgTVaR+YMc2yV4i/Etg4HOsNHvMUHvMcrdBrfE0SbhCUSAivc4gLXaKrwEQPc4gOaUswQ95NhjhUyTDFH9FXg0NO2wAy3tRvM0F6tB9L9ZTzBFWJPG0RnZS3VKsRBVAg0TINpMA2mwTSYBtNgGkyDaTANpsE0mAbTYBoeIg39PUPgFXYf7R8Q2O0l/sbz2l94jzWiTUKJ6GKKGzQFuEaTzK1PS42DWGKDGdbIkBBdDBBoDJEQh7OsjTDADRLiUfsecQIlKuQosK4lxE7bMelSwceUBtNgGkyDaTANpsE0mAbTYBpMg2kwDabBNJiGN3iGPzBEoDHFE0QXL/AX/sZP+BV/4Tk+oc/QDjQWuMUNrmtXuMQAl5jgMO+Sl8ixQo64n3eYImr/YIk4nCa8UzS1nCDOzQvETrd4gLCVtTXyWonY0wYV1qjw6NJgGkyDaTANpsE0mAbTYBpMg2kwDabBNJgG0zDE73iDV3iGl4hagTGitkcV5lgjaq/wJz7gT/xS+xPPkSEwR/QwwqQ2xggDXGFYG6FEnzgVtQ3WyNB7HrzHX/gTX9ASp36GmGCIGeI8fEC0WWGP0fkJLxEnkJCjQu9NRSemwTT0YRr6Mw2mwTSYBtNgGkyDaTANpsE0mAbT8AHfYe/t12JPrxG1Df5Ek6SX+Acv8Ab/4C1aT39g3ziNscICGRYYYow5xijQvQ8l5lghsECGKaKvl/gNP+EfHGXaDjDGGgWiizU6zYOniIN4i33/HVvi0Bm4axa3X/vcj2kwDabBNJgG02AaTEN/psE09GQaTINpMA2mwTT8jmjzHM8QJzXCj3iJ97isDTHBDAnd37it8BlDrJBjiBsM0ZhjggI5SlRovRR6gxwL5CiwxBw5JijRe8Y+x2/4gDiwhCsMartjvMFh5lqFOLA3iDZzxDGUaM1F41GnwTSYBtNgGkyDaTANpsE0mAbTYBpMg2kwDaYB+Blxhy+4QKAxQKCxQPQ1xQe8xWskbA2x3hYYI2oJY1zhFs1PS2xQYYPABneVZ4OmI6lWYIEJ1pii90FM+BMfkXDoKgQGuMYAc8RZ+gm7VyNuEW0+Io4hofdDTINpMA2m4QhMg2nozzSYBtNgGkyDaTANpsE0mIYOXiBHYLfvcYPoq8AXvEHU1ogeltj9Ise4xC0GuMUUqbaVqQoJJZbIajNMUWKDvFZhiX13IdDIEbVPiOMaYYAhJogz9wTt/ziet/6lSDjDNJgG02AaTINpMA2mwTSYBtNgGkyDaTANpsE0vELU3iPa3CIO7C3eY/cejhFt9m1LgQGucFsb1BbYYI2mD2tsaisskGGFDIESU4wQaJRoPbdjTDFBoJHhEnFcGzS7MMMDDfz+3iF2yhGPVULANJgG02AaTINpMA09mAbTYBpMg2kwDabhsEyDabhGoPEacYcZ4mi+4D3+wSX6vP++QrSZYlibIMMKOVo/6LMJwhwzND8tUCLHAkPMENi3D3t8SusIcQIFFhijQHSW4yhVGNQCu/2BRzbHN+hfLdNgGvozDabBNJgG02AaTINpMA2mwTSYhu5Mg2n4gp8RbX7BFaKz94guFviEGa4R3bQcxVQL5FgiR4ERpiiQEG0SCuRYYYkKJZaYYoQVEnYPhE733mKIOK4c01pCp6LE4fTe37/xKNLQCGz99EjSYBpMg2kwDabBNJgG02AaTINpMA2mwTSYBtMwQmC3W0Rn/0PczwwlYqcBAo0K0cUSY0wwwxKxpwoFKuSYYY4F1kjYblWt+xyaYok4miZ7c2SIx+oN4jEoUWGDCltrZabBNJgG02AaTINpMA2mwTSYhmMzDabBNPRnGkxDhk+ILhI6Tbg/EV0MsUScwBJzTNEYoUB0kWOOCabIalvtmyJ62IrnGv021SJHiQWW6NSWOA9PETtd45z6UGCOhECJPaZkBdOwzTSYBtNgGkyDaTANpsE0mAbTYBqOyDSYBtPwCe/wD17iFeJoErrP0wsUiPvZ4K7hvsASaySsMcMYU2yvKOwpIcMUzfYCOaK2xArR2RdsT+q+9shUquWI7o6Riz8RO/2Ap/iAeHD7Du+itkDUKqTa7u2ZBtPQg2kwDabBNJgG02AaTINpMA2mwTR0YBpMwwr/4B2+4AqBJeIgKgT6bHmOJaKvCwxQYo2mDxlmtRFmWKB7nHKMMcAMa0QtIUeG6OwCDz++E+Ih/Q9xhwzf4RmeoOW556/EBjNsrUs0qpppgGl4GKbBNJgG02AaTINpMA2mwTSYBtNgGkzDW8RBTBDHldeis4QCCWtspWuJOZpILDBGhjm6v4I1MkxRISHQ2KBE7JQhr33FDcZ4kCAAceZeInZa4NyrkGpbVShRIaFhGmAaTsw0mAbTYBpMg2kwDabBNJgG02AaTINpOJLXiPv5E1eIA5sidqqQY1HLkGOFEgnRWUKGu7bSfcsJOUa4QI4mMPFAzr0PU0QXQ8SBzdHn6JbYSkNeK9H+D41pMA2nYxpMg2kwDabBNJgG02AaTINpMA2mwTQsEW2eI7DbW/wXT/EEcT+/InYqcM91iX2HcdOHAp1G+hoXCLRO/hzNzYR7zroJbjFFaJ8h9Q/6T+XjKtBp6BW1Jg0J0SbBNJgG02AaTINpkGkwDQ3TINNgGlqYhh5Mg2nIEIfzFk9q/4dOf2iMaFOhz9JA9zf/S8ThbJDQ+/38DeaYocQYcQIlYqcKcb6WiG/EBitsaiUKtA8z02AaTINpMA2m4fhMg2kwDabBNJgG02AaTINpOILXaNLwFIEniL42iO6aOD24JjobRF8ZKkRthdA+Y+i/OJMXlCN22mOOl0iokCOhETuZBpgG02AaTINpkGkwDaZBpsE0tDMNMg0PngagCcKWr4geciREZ63HfY0HSEOF3vvRupUJ4nGpEAc2RfR1g317cxT71qPCVho6fWiDaTANpsE0mAbTcP5Mg2kwDabBNJgG02AaTINp+BUJcQwJsa3DtFghah8Qp1cgR++tBHYrEcewRpzUHI9sy6dNXMIGBbbS0NybaqbBNPRgGkyDaTANpsE0mAbTYBpMg2kwDR2YBtOQofUN2dd4jGd+g7jDGBWam4HGECXiaCoUuGceM5SIb5rG6DRA1sjRBCFHgUDzO9NgGmQaTINpkGkwDaZBR2caTINpkGloPMUTxJmb4DkCjSt8wVv8g91v1i8wwCW+otnKEHEMCUskRBcF5hggRzxWCdFmijhLr3CKAzFD9FChkWqBAqbBNJgG02AaTINpMA2mwTSYBtNgGkyDaTgN05DwDN/hC+J+Rpgg0PgezxA7fUW0WeAlfsPviNon7Du5opZjqxlf8REDxDFUaP0Eimu0rtwUGGOO3pPw4W0QD26FwG4XiNqvWCPOSIUN0h1KbGAaYBqOyjSYBtNgGkyDaTANpsE0mAbTYBpMg2mY4L94icBrxB1+xwVip622vEMcznP8Vluh019LtagVWGKET3iHL7grJtHX7q/2rzDFCd+71y1iT0/xG844qBXu+lqraGEaTINMg2kwDTINpsE0yDSYBtMg03CENDzBF0QDz7D95v8ZeYXnGCFqb9B77l7jLW4QR5PQfwSfXkL0VaD/yziaL9j6Q1N8h99xlFeV0PfQtW8qNVDBNJgG02AaTINpMA2mwTSYhmMyDabBNJgG02AaKrxDHMQVOr2V+j9EFyUu0awjvMEB10Nm+IQbXGGNOIYLRGepFmepxDfw0qaI2hPETjP8iOhigB6B6RUd02AajsY0mAbTYBpMg2kwDabBNJgG02AaTINpAJ4h2vyO2GmB9/gLF/iKfSdhdJHjEgNcILDCJ0QH29Va4Cs+4goDzJAQhzPEDW4Rd6gQmCBhd3MfXsIEgRzxWK0Qx9BpSJU4dAsSTINpMA2mwTSYBtNgGkyDaTANpsE0mAbTcBqm4X/Y3YefEW1+wW+4wF94icChB0fCFCsc+mCtcIWvuMAQYxw6DZdo+hA73WKEeAi6RXTxDtHDuhbHYBpMg0yDaTANMg2mwTToNEyDaTANMg1bfYg2f2D3IsYP+AU/4hUm6H4kfkHsNEXgBaKLCtEmYYQvuMIQR5mTEwwwxBTRpnlc66GL49Bz/IbYDT8g9vQJnebubkv0mQumwTS0k2kwDaZBpsE0mAaZBtNgGtSfadhjOm7Q+vKf1Z4ijmuEwEfEgW0wxQVGyBAHdlm7wAJxhxIjbNBey8dvhehsht7rU3v4D6KHf/Ae8ZASKiSYBtNwdKbBNJgG02AaTINpMA2mwTSYBtNgGkxD40fE/fwfnuAHDBFHkyNqLxAHNsFXjNF7UG7JMcUVLrDvUVuiiURCfCOGOMoefUB09gLt46+zPxAH0799psE0mAbTYBpMw6mZBtNgGkyDaTANpsE0mAbT8B4rxP08xRM8RZyvEgkTJEQtYYwJCsThJMwxxQBXuEF0ViAeyBp7rGgldN/KbiXiuD4iDucWR8nAe3R/rmkwDabBNJgG03AapsE0mAbTYBpMg2kwDabBNGz5AdHDJf7EE6wRJ/AGhz7aCXFgOVZYI8MtrhH6FrxCtHmKwyw/XOMzYk8VYptpMA0yDabBNMg0mAbTINNgGkyDTsg0AH8jHqELTBDnq0KGGTKMcYPY0xxbvYmzlCP+ZS4QbV5jgdMezg22e1MzDUdnGkyDaTANpsE0mAbTYBpMg2kwDabBNJiGJZ4gkBCPyxKBAb4iuigRJ7DBChM0fZijdcBcowlCY4WH2pleY/RoOg3gF4jT+4g4lSliN9NgGkyDaTANpqEL02AaTINpMA2mwTSYhv9v7z502/bVAIq3vXvv7hm72XE85anv/R/r4mBIAIEEYhnJcXB+GP/RKZrfMUBmZDENpuER7xCP+gde4d/4gneIoXxCJHCN/G2yRfSrxrpRYYYO363/DgM8zHBqRIEJIh++Yqj3rNRRq1DDNJiG58A0mAbTYBpMg2kwDabBNJgG02AaTINpeI0fCCRGCPwNB+yQv5d7UaF8KftwwAZrzDHFCAvE83WG/Oetkd+CrNW4QzwPDw5OhTcoXtjy+poG02AaTINpMA2mwTSYBtNgGkyDaTANR2MaTMMt/ok3iId8xzc89TxfIl6wGjusUWGNC9zghT70GvGoDWJYA9xkHHCFGN4BpsE0mAbTYBpMg2kwDabBNJgG02AaTMPzYhpMwwVG+IJoIWnBGeLF2SKwRo14YnscUGGFS1zhFjtEo/3Pk7BD1nn5BF3TMGxB7xGNPyI6+oiuu+4n8ptb+FNMg2kwDabBNJiG4ZkG02AaTINpMA2mwTSYBtNwjjhpNboe0t6hZClL1KiwxDXO8eBPPqDgZPq4jvq1GaaIAh/w1Htjig3KO1zANJiGoZkG02AaTINpMA2mwTSYBtNgGkyDaTANPxEnaIsdum7PGjeIBPYYYlSWWCEwQ2CHCeIEDNyqCtHRAsXTtECNGMAI0dE1CpphGkzDQEyDaTANpsE0mAbTYBpMg2kwDabBNJiGv+EV4niO91ntl3jw6qLGsGf3F1hhjnghSk7ib1EjjukNItstIpXxhvQR/8TvEEicIfKZBtNgGkyDaTANpsE0mAbTYBpMg2kwDaZhEKah1SENU6Tj83T2CFzgDB/xAf9F+pNLTfE/BFo3GCoI6cOMscUSv3jiXDfiudmjl6oO4QdiKFMEWmtcINCaI3ddTINpMA2mwTSYBtNgGkyDaTANAzANpsE0mAbTkN+HxA6B/yDrFc0amgM6rF2Wa1wg/0y52BaBGUYY4ye2mCF/0JMFeyYO2KPGUce7xDWiXOE2e41Aa4ItOrxFbGEaTINpMA2mwTSYBtNgGkyDaTANpsE0mIahmYZX+AdmCEwQHY0Qp+UryueqdJOvMMY3jLHHDPNG5Fij7esOxx/CGk+d1tYEz/1q5Rpvkf9+3Pod4kmZBtMwANNgGkyDaTANpsE0mAbTYBpMg2kwDabhE6LUDnESCnbSCFMEit3gDhMEdqgQqLBFZhqAbSOOaYenDsw9Hn+2OaLUFDGovyKGYhpMQ09Mg2kwDabBNJgG02AaTINpMA2mwTSYhhH+iD/jP4iTdo4YwL9Rsn8OuMUFpo3ADmu0P3mB/DS0NigZwpN9VT8iGitEju+Ifm0xxG3EAVuYBpgG02AaTEOvTINpMA2mwTSYBtNgGkyDaTANC7xqvGlERyPE6ZuhQgCdv2zsBQL56sYl7pFMcYVfnOzk687W2GKFOLqS6Gxw/LAtEYMaI9D6GyLbAqbBNJgG02AaTINpMA2mwTSYBtNgGvpgGlqmwTQAf0I0XiEedYkohiusEKV2iHyY4BaB9+jwF4/GNSLbHm1gzpHs/gWSac9PwwYr1Gj/3/HTMEX7n0847VvES/cTUcA0mAbTMAzTYBpMg2kwDabBNJgG02AaTINpMA1jROM1YgB73OEM0YcpAl3/jHfocA7+FuWn86hwjzGSFZojCeAe0VGFBdp/mzYixwI1yquACoFFI7LNES3MkBGT3u85JpghOvqM/yEGYBpMg2nIZxpMg2kwDabBNJgG02AaTINpMA2ZTMMVAhO8xgLP/Yx1gawblB+NwBqBHWZ4i0/4jGvEAKb4gaRL90jSkLVRa6zR/ucKc+wRR1ehQ6va1WhdIHpTvEJ3iEaHO7B3+BP+gy3SBcO/cSJpMA2mwTSYBtNgGkyDaTANpsE0mAbTYBpMg2lozfAN0cIGkQ87BB5/RdeIbDU6rHZijAnukCYE33GGno+x9xghWYM1bhGNA9Ldij0WWGGBOZaNOerGEjOsEL25xBZR6hobDHvfMEXkuEH+s/0bb1Fjhw7XMqeUBtNgGkyDaTANpsE0mAbTYBpMg2kwDabBNJiGFcYoDULq94hH3eIXX9t3iERpdOY4R+TDAV1P568QLdRI9kDdOCD5gVZyOdGW4g5LrLHEFfaIAsMOa4UbBJaI3uT/9j8QrdJfdoaCSz7TYBpMQw9Mg2kwDSVMg2kwDabBNJgG02AaTINpeIt01kp9Q7RQY4T0OqOjPf6G6MMN5uh5IiZItwT2qPDg49cJPL5gS8ywwRaLRmRbI0rVjV+89LpAfrl7uXT4F6IYKsSgTEPKNJgG02AaTINpMA2mwTSYBtNgGsqZBtNgGspPakvdItkSY8SjVrhDf1U4Q+TI70iNCjd4MA010kHCtpH1LZ0qLBsrLFAjhnfAFMnjxwCKizJB8YYruMMxDabBNAzPNJgG02AaTMP/AYxXzqJqU8AXAAAAAElFTkSuQmCC;" vertex="1" parent="1">
          <mxGeometry x="1411" y="170" width="120" height="120" as="geometry" />
        </mxCell>
        <mxCell id="twbbHOKhrj83xSpajMzB-41" value="" style="edgeStyle=orthogonalEdgeStyle;rounded=0;orthogonalLoop=1;jettySize=auto;html=1;" edge="1" parent="1" source="twbbHOKhrj83xSpajMzB-33" target="twbbHOKhrj83xSpajMzB-39">
          <mxGeometry relative="1" as="geometry" />
        </mxCell>
        <mxCell id="twbbHOKhrj83xSpajMzB-33" value="DeepLabV3+ model" style="shape=process;whiteSpace=wrap;html=1;backgroundOutline=1;fillColor=#dae8fc;strokeColor=#6c8ebf;verticalAlign=bottom;" vertex="1" parent="1">
          <mxGeometry x="1200" y="200" width="150" height="60" as="geometry" />
        </mxCell>
        <mxCell id="twbbHOKhrj83xSpajMzB-35" value="" style="shape=image;verticalLabelPosition=bottom;labelBackgroundColor=default;verticalAlign=top;aspect=fixed;imageAspect=0;image=data:image/svg+xml,PHN2ZyB4bWxuczp4bGluaz0iaHR0cDovL3d3dy53My5vcmcvMTk5OS94bGluayIgeG1sbnM9Imh0dHA6Ly93d3cudzMub3JnLzIwMDAvc3ZnIiBoZWlnaHQ9IjExMi4zODkiIHdpZHRoPSIxMTEuMTYxIiB2ZXJzaW9uPSIxIiB2aWV3Qm94PSIwIDAgMTExLjE2MSAxMTIuMzg5Ij48ZGVmcz48bGluZWFyR3JhZGllbnQgaWQ9ImMiPjxzdG9wIHN0b3Atb3BhY2l0eT0iLjQ5OCIgc3RvcC1jb2xvcj0iI2I4YjhiOCIgb2Zmc2V0PSIwIi8+PHN0b3Agc3RvcC1vcGFjaXR5PSIwIiBzdG9wLWNvbG9yPSIjN2Y3ZjdmIiBvZmZzZXQ9IjEiLz48L2xpbmVhckdyYWRpZW50PjxsaW5lYXJHcmFkaWVudD48c3RvcCBzdG9wLW9wYWNpdHk9Ii41IiBzdG9wLWNvbG9yPSIjN2Y3ZjdmIiBvZmZzZXQ9IjAiLz48c3RvcCBzdG9wLW9wYWNpdHk9IjAiIHN0b3AtY29sb3I9IiM3ZjdmN2YiIG9mZnNldD0iMSIvPjwvbGluZWFyR3JhZGllbnQ+PGxpbmVhckdyYWRpZW50PjxzdG9wIHN0b3Atb3BhY2l0eT0iLjUiIHN0b3AtY29sb3I9IiNiMmIyYjIiIG9mZnNldD0iMCIvPjxzdG9wIHN0b3Atb3BhY2l0eT0iMCIgc3RvcC1jb2xvcj0iI2IzYjNiMyIgb2Zmc2V0PSIxIi8+PC9saW5lYXJHcmFkaWVudD48bGluZWFyR3JhZGllbnQ+PHN0b3Agc3RvcC1jb2xvcj0iI2Y0ZjRmNCIgb2Zmc2V0PSIwIi8+PHN0b3Agc3RvcC1jb2xvcj0iI2ZmZiIgb2Zmc2V0PSIxIi8+PC9saW5lYXJHcmFkaWVudD48bGluZWFyR3JhZGllbnQgaWQ9ImEiPjxzdG9wIHN0b3AtY29sb3I9IiNmZmQ0M2IiIG9mZnNldD0iMCIvPjxzdG9wIHN0b3AtY29sb3I9IiNmZmU4NzMiIG9mZnNldD0iMSIvPjwvbGluZWFyR3JhZGllbnQ+PGxpbmVhckdyYWRpZW50IGlkPSJiIj48c3RvcCBzdG9wLWNvbG9yPSIjNWE5ZmQ0IiBvZmZzZXQ9IjAiLz48c3RvcCBzdG9wLWNvbG9yPSIjMzA2OTk4IiBvZmZzZXQ9IjEiLz48L2xpbmVhckdyYWRpZW50PjxsaW5lYXJHcmFkaWVudCBncmFkaWVudFRyYW5zZm9ybT0idHJhbnNsYXRlKDEwMC4yNyA5OS42MTEpIiBncmFkaWVudFVuaXRzPSJ1c2VyU3BhY2VPblVzZSIgeGxpbms6aHJlZj0iI2EiIHkyPSIxNDQuNzU3IiB4Mj0iLTY1LjMwOSIgeTE9IjE0NC43NTciIHgxPSIyMjQuMjQiLz48bGluZWFyR3JhZGllbnQgZ3JhZGllbnRUcmFuc2Zvcm09InRyYW5zbGF0ZSgxMDAuMjcgOTkuNjExKSIgZ3JhZGllbnRVbml0cz0idXNlclNwYWNlT25Vc2UiIHhsaW5rOmhyZWY9IiNiIiB5Mj0iNzYuMzEzIiB4Mj0iMjYuNjciIHkxPSI3Ny40NzYiIHgxPSIxNzIuOTQyIi8+PGxpbmVhckdyYWRpZW50IGdyYWRpZW50VHJhbnNmb3JtPSJ0cmFuc2xhdGUoMTAwLjI3IDk5LjYxMSkiIGdyYWRpZW50VW5pdHM9InVzZXJTcGFjZU9uVXNlIiB4bGluazpocmVmPSIjYiIgeTI9Ijc2LjMxMyIgeDI9IjI2LjY3IiB5MT0iNzcuNDc2IiB4MT0iMTcyLjk0MiIvPjxsaW5lYXJHcmFkaWVudCBncmFkaWVudFRyYW5zZm9ybT0idHJhbnNsYXRlKDEwMC4yNyA5OS42MTEpIiBncmFkaWVudFVuaXRzPSJ1c2VyU3BhY2VPblVzZSIgeGxpbms6aHJlZj0iI2EiIHkyPSIxNDQuNzU3IiB4Mj0iLTY1LjMwOSIgeTE9IjE0NC43NTciIHgxPSIyMjQuMjQiLz48bGluZWFyR3JhZGllbnQgZ3JhZGllbnRUcmFuc2Zvcm09InRyYW5zbGF0ZSgxMDAuMjcgOTkuNjExKSIgZ3JhZGllbnRVbml0cz0idXNlclNwYWNlT25Vc2UiIHhsaW5rOmhyZWY9IiNiIiB5Mj0iNzYuMzEzIiB4Mj0iMjYuNjciIHkxPSI3Ny40NzYiIHgxPSIxNzIuOTQyIi8+PGxpbmVhckdyYWRpZW50IGdyYWRpZW50VHJhbnNmb3JtPSJ0cmFuc2xhdGUoMTAwLjI3IDk5LjYxMSkiIGdyYWRpZW50VW5pdHM9InVzZXJTcGFjZU9uVXNlIiB4bGluazpocmVmPSIjYSIgeTI9IjE0NC43NTciIHgyPSItNjUuMzA5IiB5MT0iMTQ0Ljc1NyIgeDE9IjIyNC4yNCIvPjxsaW5lYXJHcmFkaWVudCBncmFkaWVudFRyYW5zZm9ybT0ibWF0cml4KC41NjMgMCAwIC41NjggLTExLjU5NyAtNy42MSkiIGdyYWRpZW50VW5pdHM9InVzZXJTcGFjZU9uVXNlIiB4bGluazpocmVmPSIjYSIgeTI9IjE0NC43NTciIHgyPSItNjUuMzA5IiB5MT0iMTQ0Ljc1NyIgeDE9IjIyNC4yNCIvPjxsaW5lYXJHcmFkaWVudCBncmFkaWVudFRyYW5zZm9ybT0ibWF0cml4KC41NjMgMCAwIC41NjggLTExLjU5NyAtNy42MSkiIGdyYWRpZW50VW5pdHM9InVzZXJTcGFjZU9uVXNlIiB4bGluazpocmVmPSIjYiIgeTI9Ijc2LjMxMyIgeDI9IjI2LjY3IiB5MT0iNzYuMTc2IiB4MT0iMTcyLjk0MiIvPjxyYWRpYWxHcmFkaWVudCBncmFkaWVudFRyYW5zZm9ybT0ibWF0cml4KDEgMCAwIC4xNzggMCAxMDguNzQzKSIgZ3JhZGllbnRVbml0cz0idXNlclNwYWNlT25Vc2UiIHhsaW5rOmhyZWY9IiNjIiBmeT0iMTMyLjI4NiIgZng9IjYxLjUxOSIgcj0iMjkuMDM3IiBjeT0iMTMyLjI4NiIgY3g9IjYxLjUxOSIvPjxsaW5lYXJHcmFkaWVudCBncmFkaWVudFRyYW5zZm9ybT0ibWF0cml4KC41NjMgMCAwIC41NjggLTkuNCAtNS4zMDUpIiBncmFkaWVudFVuaXRzPSJ1c2VyU3BhY2VPblVzZSIgeGxpbms6aHJlZj0iI2EiIHkyPSIxMzcuMjczIiB4Mj0iMTEyLjAzMSIgeTE9IjE5Mi4zNTIiIHgxPSIxNTAuOTYxIi8+PGxpbmVhckdyYWRpZW50IGdyYWRpZW50VHJhbnNmb3JtPSJtYXRyaXgoLjU2MyAwIDAgLjU2OCAtOS40IC01LjMwNSkiIGdyYWRpZW50VW5pdHM9InVzZXJTcGFjZU9uVXNlIiB4bGluazpocmVmPSIjYiIgeTI9IjExNC4zOTgiIHgyPSIxMzUuNjY1IiB5MT0iMjAuNjA0IiB4MT0iMjYuNjQ5Ii8+PHJhZGlhbEdyYWRpZW50IGdyYWRpZW50VHJhbnNmb3JtPSJtYXRyaXgoMCAtLjI5NiAxLjQzNyAwIC0xMjguNTQ0IDE1MC41MikiIGdyYWRpZW50VW5pdHM9InVzZXJTcGFjZU9uVXNlIiB4bGluazpocmVmPSIjYyIgZnk9IjEzMi4yODYiIGZ4PSI2MS41MTkiIHI9IjI5LjAzNyIgY3k9IjEzMi4yODYiIGN4PSI2MS41MTkiLz48cmFkaWFsR3JhZGllbnQgcj0iMjkuMDM3IiBmeT0iMTMyLjI4NiIgZng9IjYxLjUxOSIgY3k9IjEzMi4yODYiIGN4PSI2MS41MTkiIGdyYWRpZW50VHJhbnNmb3JtPSJtYXRyaXgoMCAtLjI0IDEuMDU1IDAgLTc4LjEwOSAxNDguODU5KSIgZ3JhZGllbnRVbml0cz0idXNlclNwYWNlT25Vc2UiIHhsaW5rOmhyZWY9IiNjIi8+PGxpbmVhckdyYWRpZW50IHkyPSIxMzcuMjczIiB4Mj0iMTEyLjAzMSIgeTE9IjE5Mi4zNTIiIHgxPSIxNTAuOTYxIiBncmFkaWVudFRyYW5zZm9ybT0ibWF0cml4KC41NjMgMCAwIC41NjggLTE0Ljk5MSAtMTEuNzAyKSIgZ3JhZGllbnRVbml0cz0idXNlclNwYWNlT25Vc2UiIGlkPSJlIiB4bGluazpocmVmPSIjYSIvPjxsaW5lYXJHcmFkaWVudCB5Mj0iMTE0LjM5OCIgeDI9IjEzNS42NjUiIHkxPSIyMC42MDQiIHgxPSIyNi42NDkiIGdyYWRpZW50VHJhbnNmb3JtPSJtYXRyaXgoLjU2MyAwIDAgLjU2OCAtMTQuOTkxIC0xMS43MDIpIiBncmFkaWVudFVuaXRzPSJ1c2VyU3BhY2VPblVzZSIgaWQ9ImQiIHhsaW5rOmhyZWY9IiNiIi8+PC9kZWZzPjxwYXRoIGZpbGw9InVybCgjZCkiIGQ9Ik01NC45MTkuMDAxYy00LjU4NC4wMjEtOC45NjEuNDEyLTEyLjgxMyAxLjA5NC0xMS4zNDYgMi4wMDUtMTMuNDA2IDYuMi0xMy40MDYgMTMuOTM3djEwLjIxOWgyNi44MTN2My40MDZoLTM2Ljg3NmMtNy43OTIgMC0xNC42MTYgNC42ODQtMTYuNzUgMTMuNTk0LTIuNDYyIDEwLjIxMy0yLjU3MSAxNi41ODYgMCAyNy4yNSAxLjkwNiA3LjkzOCA2LjQ1OCAxMy41OTQgMTQuMjUgMTMuNTk0aDkuMjE5di0xMi4yNWMwLTguODUgNy42NTctMTYuNjU2IDE2Ljc1LTE2LjY1NmgyNi43ODFjNy40NTUgMCAxMy40MDYtNi4xMzggMTMuNDA2LTEzLjYyNXYtMjUuNTMxYzAtNy4yNjYtNi4xMy0xMi43MjUtMTMuNDA2LTEzLjkzNy00LjYwNi0uNzY3LTkuMzg1LTEuMTE1LTEzLjk2OS0xLjA5NHptLTE0LjUgOC4yMTljMi43NyAwIDUuMDMxIDIuMjk5IDUuMDMxIDUuMTI1IDAgMi44MTYtMi4yNjIgNS4wOTQtNS4wMzEgNS4wOTQtMi43NzkgMC01LjAzMS0yLjI3Ny01LjAzMS01LjA5NCAwLTIuODI2IDIuMjUyLTUuMTI1IDUuMDMxLTUuMTI1eiIvPjxwYXRoIGZpbGw9InVybCgjZSkiIGQ9Ik04NS42MzggMjguNjU3djExLjkwNmMwIDkuMjMxLTcuODI2IDE3LTE2Ljc1IDE3aC0yNi43ODFjLTcuMzM2IDAtMTMuNDA2IDYuMjc4LTEzLjQwNiAxMy42MjV2MjUuNTMxYzAgNy4yNjYgNi4zMTkgMTEuNTQgMTMuNDA2IDEzLjYyNSA4LjQ4NyAyLjQ5NiAxNi42MjYgMi45NDcgMjYuNzgxIDAgNi43NS0xLjk1NCAxMy40MDYtNS44ODggMTMuNDA2LTEzLjYyNXYtMTAuMjE5aC0yNi43ODF2LTMuNDA2aDQwLjE4N2M3Ljc5MiAwIDEwLjY5Ni01LjQzNSAxMy40MDYtMTMuNTk0IDIuNzk5LTguMzk5IDIuNjgtMTYuNDc2IDAtMjcuMjUtMS45MjYtNy43NTctNS42MDQtMTMuNTk0LTEzLjQwNi0xMy41OTRoLTEwLjA2M3ptLTE1LjA2MyA2NC42NTZjMi43NzkgMCA1LjAzMSAyLjI3NyA1LjAzMSA1LjA5NCAwIDIuODI2LTIuMjUyIDUuMTI1LTUuMDMxIDUuMTI1LTIuNzcgMC01LjAzMS0yLjI5OS01LjAzMS01LjEyNSAwLTIuODE2IDIuMjYyLTUuMDk0IDUuMDMxLTUuMDk0eiIvPjwvc3ZnPg==;" vertex="1" parent="1">
          <mxGeometry x="1259.27" y="208.26" width="31.46" height="31.74" as="geometry" />
        </mxCell>
        <mxCell id="twbbHOKhrj83xSpajMzB-40" value="Water Depth Predictions" style="text;html=1;strokeColor=none;fillColor=none;align=center;verticalAlign=middle;whiteSpace=wrap;rounded=0;" vertex="1" parent="1">
          <mxGeometry x="1411" y="290" width="119" height="30" as="geometry" />
        </mxCell>
        <mxCell id="twbbHOKhrj83xSpajMzB-46" value="HAIL-CAESAR" style="shape=process;whiteSpace=wrap;html=1;backgroundOutline=1;fillColor=#e1d5e7;strokeColor=#9673a6;verticalAlign=bottom;" vertex="1" parent="1">
          <mxGeometry x="700" y="200" width="140" height="60" as="geometry" />
        </mxCell>
      </root>
    </mxGraphModel>
  </diagram>
</mxfile>
